<svg xmlns="http://www.w3.org/2000/svg" xmlns:xlink="http://www.w3.org/1999/xlink" viewBox="0 0 111 81" fill="#fff" fill-rule="evenodd" stroke="#000" stroke-linecap="round" stroke-linejoin="round"><use xlink:href="#A" x=".5" y=".5"/><symbol id="A" overflow="visible"><path d="M54.119 50.37l-1.268 5.008c-.212.835.423 1.46 1.057 1.252l5.074-1.252c.846-.209 1.057-.835.423-1.461L55.6 50.161c-.634-.626-1.48-.626-1.48.209zm3.805-6.26l7.399 7.303c.634.626 1.691.626 2.325 0l34.247-34.011c.634-.626.634-1.669 0-2.295l-7.399-7.303c-.634-.626-1.691-.626-2.325 0L57.924 41.815a2.24 2.24 0 0 0 0 2.295zm49.891-41.94c-4.228-4.173-8.456-1.043-8.456-1.043-.634.417-1.691 1.461-2.325 2.087s-.634 1.461 0 2.295l7.399 7.303c.634.626 1.691.626 2.114 0l2.114-2.295c.211 0 3.382-4.173-.846-8.346zM33.19 64.768h0c-.211.417-.211.835-.423 1.252l-1.691 5.008h3.805l-1.48-5.008c0-.417-.212-.835-.212-1.252zm44.817 3.547a1.93 1.93 0 0 0-1.48.626c-.423.417-.634.835-.634 1.461h3.805c0-1.461-.634-2.087-1.691-2.087zm15.221-12.102h-1.48c.846-2.713 1.057-5.634 1.057-8.555 0-4.59-1.057-8.972-2.748-12.937l-19.66 19.405c-1.057 1.043-8.667 4.382-10.57 5.008h0 0l-4.862 1.461c-.423 0-.846.209-1.268.209-1.48 0-2.959-.626-4.017-1.878a5.1 5.1 0 0 1-1.057-4.59h0 0l1.268-4.799c.423-2.087 4.017-9.598 5.074-10.642l20.083-19.823c-4.439-2.295-9.513-3.547-14.798-3.547-14.375 0-26.636 9.181-30.864 21.909-2.325-.835-4.651-1.252-7.188-1.252C9.936 36.181 0 45.988 0 58.09S9.936 80 22.197 80h0 72.088 0c6.342-.417 11.204-5.634 11.204-12.102 0-6.26-5.496-11.685-12.261-11.685zM36.784 76.87l-.846-3.338h-5.285l-1.057 3.338h-3.594l5.285-14.606h4.017l5.285 14.606h-3.805zm13.53 0h-9.513v-1.252l5.285-6.677h-4.862v-2.295h8.879v1.669l-4.651 6.051h5.074v2.504zm11.839 0h-3.171V75.2h0c-.846 1.252-1.903 1.878-3.171 1.878-2.537 0-3.594-1.461-3.594-4.382v-6.26h3.171v5.842c0 1.461.634 2.295 1.691 2.295a1.93 1.93 0 0 0 1.48-.626c.423-.417.634-1.043.634-1.669v-6.051h3.171V76.87zm9.724-7.72c-.423-.209-.846-.417-1.268-.417-.634 0-1.268.209-1.691.835-.423.417-.634 1.252-.634 2.087v5.008h-3.171V66.228h3.171v1.878h0c.423-1.461 1.48-2.087 2.748-2.087.423 0 .634 0 .846.209v2.921zm10.993 3.338h-6.976c.212 1.461 1.057 2.295 2.96 2.295 1.057 0 2.114-.209 3.171-.835v2.295c-1.057.417-2.325.835-3.805.835-1.691 0-2.96-.417-4.017-1.461-.846-.835-1.48-2.295-1.48-3.965 0-1.878.634-3.339 1.691-4.382 1.057-.835 2.114-1.252 3.594-1.252 1.691 0 2.748.417 3.594 1.461.846.835 1.057 2.087 1.057 3.547v1.46z" fill="#0078d7" stroke="none"/></symbol></svg>