<svg width="550" height="388" viewBox="0 0 550 388" fill="none" xmlns="http://www.w3.org/2000/svg">
<g clip-path="url(#clip0)">
<path d="M361.248 165.536L349 173.25" stroke="#C8C8C8" stroke-width="1.25"/>
<path d="M233 142.5L264.25 123.375L450.5 233.125L409.75 259" stroke="#C8C8C8" stroke-width="1.25"/>
<path d="M328.254 284.416L386.515 248.475L430.087 272.991L371.269 309.49L328.254 284.416Z" stroke="#C8C8C8" stroke-width="1.25"/>
<path d="M255.176 235.442L307.497 204.975L356.388 233.995L303.507 265.021L255.176 235.442Z" stroke="#C8C8C8" stroke-width="1.25"/>
<path d="M169.942 182.346L222.263 151.879L271.154 180.899L218.273 211.925L169.942 182.346Z" stroke="#C8C8C8" stroke-width="1.25"/>
<path d="M115.688 341.509L168.009 311.042L216.9 340.062L164.019 371.089L115.688 341.509Z" stroke="#C8C8C8" stroke-width="1.25"/>
<path d="M355.219 299.741L323 320.25" stroke="#C8C8C8" stroke-width="1.25"/>
<path d="M288.883 196.528L214.276 244.02" stroke="#C8C8C8" stroke-width="1.25"/>
<path d="M284.69 253.253L180.294 319.939" stroke="#C8C8C8" stroke-width="1.25"/>
<path d="M242.553 334.283L294.874 303.816L343.765 332.836L290.884 363.862L242.553 334.283Z" stroke="#C8C8C8" stroke-width="1.25"/>
<path d="M129.682 255.404L182.004 224.937L230.895 253.957L178.013 284.983L129.682 255.404Z" stroke="#C8C8C8" stroke-width="1.25"/>
<path d="M161 276L73.4187 331.449" stroke="#C8C8C8" stroke-width="1.25"/>
<path d="M1.28711 357.162L53.6082 326.695L102.499 355.715L49.618 386.741L1.28711 357.162Z" stroke="#C8C8C8" stroke-width="1.25"/>
<path d="M18.3259 268.585L70.647 238.118L119.538 267.138L66.6568 298.164L18.3259 268.585Z" stroke="#C8C8C8" stroke-width="1.25"/>
<path d="M177.25 187L82.9314 247.015" stroke="#C8C8C8" stroke-width="1.25"/>
<g opacity="0.3" filter="url(#filter0_f)">
<path opacity="0.3" d="M539.906 151.887L457.723 199.415L319.761 119.872L402.604 72.3447L539.906 151.887Z" fill="black"/>
</g>
<path d="M361.347 124.824L433.299 82.9072L432.969 102.05L361.347 143.967V124.824Z" fill="#32B0E7"/>
<path d="M397.323 117.233V125.485L390.062 121.194L390.392 112.943L397.323 117.233Z" fill="#0078D7"/>
<path d="M414.156 107.001L430.328 116.242L429.998 183.573L382.801 156.179V137.036L361.347 124.494V143.637L319.431 119.543L319.761 52.2124L342.864 65.4145L363.988 77.6265L378.51 85.8778L399.964 98.4198L414.156 107.001ZM415.806 136.046V127.794L408.545 123.504V131.755L415.806 136.046ZM341.544 93.1389V84.8876L334.283 80.5969V88.8482L341.544 93.1389ZM360.027 103.7V95.4493L352.766 91.1586V99.4099L360.027 103.7ZM378.84 114.922V106.671L371.579 102.38V110.632L378.84 114.922ZM397.323 125.484V117.233L390.062 112.942V121.193L397.323 125.484Z" fill="#50E5FF"/>
<path d="M341.544 84.8879V93.1393L334.283 89.1786V80.5972L341.544 84.8879Z" fill="#0078D7"/>
<path d="M360.028 95.4499V103.701L352.767 99.7406V91.4893L360.028 95.4499Z" fill="#0078D7"/>
<path d="M378.84 106.341V114.922L371.909 110.632V102.38L378.84 106.341Z" fill="#0078D7"/>
<path d="M415.806 127.794V136.046L408.545 132.085V123.503L415.806 127.794Z" fill="#0078D7"/>
<path d="M430.329 116.573L502.281 74.6562L501.951 141.988L430.329 183.574V116.573Z" fill="#50E6FF"/>
<path d="M430.329 116.573L502.281 74.6562L507.562 77.9569L435.61 119.544L430.329 116.573Z" fill="#32B0E7"/>
<path d="M458.384 132.416L458.054 200.407L430.329 184.235V183.574V116.573L435.61 119.544L458.384 132.416Z" fill="#0078D4"/>
<path d="M435.61 119.543L507.562 77.9561L530.006 90.8282L458.384 132.415L435.61 119.543Z" fill="#32B0E7"/>
<path d="M458.383 132.415L530.005 90.8281V158.489L458.053 200.406L458.383 132.415Z" fill="#185A97"/>
<path d="M391.382 10.625L319.761 52.5417L430.329 116.572L502.28 74.6552L391.382 10.625Z" fill="#ABF2FC"/>
<path d="M383.792 17.5554L392.043 12.6045L393.693 54.5216L385.442 59.4724L383.792 17.5554Z" fill="#156AB3"/>
<path d="M365.969 6.66406L383.792 17.5558L385.442 59.4729L364.319 47.2608L365.969 6.66406Z" fill="#0078D4"/>
<path d="M365.969 6.66377L374.55 2.04297L392.043 12.6048L383.792 17.5556L365.969 6.66377Z" fill="#0078D4"/>
<path d="M366.959 -6.53791L375.541 -11.4888L391.383 -2.24724L382.802 2.37356L366.959 -6.53791Z" fill="#ACF3FD"/>
<path d="M382.802 2.37388L383.792 17.5564L365.969 6.6646L366.959 -6.5376L382.802 2.37388Z" fill="#50E6FF"/>
<path d="M382.802 2.37373L391.383 -2.24707L392.043 12.6055L383.792 17.5563L382.802 2.37373Z" fill="#50E6FF"/>
<path d="M416.467 35.3801L424.058 31.0894L425.708 73.0063L418.117 77.2971L416.467 35.3801Z" fill="#156AB3"/>
<path d="M398.974 24.8179L416.467 35.3797L418.117 77.2966L396.663 64.7545L398.974 24.8179Z" fill="#0078D4"/>
<path d="M398.974 24.8186L406.565 20.5278L424.058 31.0896L416.467 35.3803L398.974 24.8186Z" fill="#0078D4"/>
<path d="M415.807 20.528L423.398 15.9072L424.058 31.0898L416.467 35.3805L415.807 20.528Z" fill="#84ECFD"/>
<path d="M399.634 10.9557L406.895 6.66504L423.398 15.9065L415.806 20.5273L399.634 10.9557Z" fill="#ACF3FD"/>
<path d="M415.806 20.5272L416.467 35.3797L398.974 24.818L399.634 10.9556L415.806 20.5272Z" fill="#50E6FF"/>
<path d="M448.812 53.8619L456.403 49.2412L458.713 91.4882L451.122 95.7789L448.812 53.8619Z" fill="#2195DC"/>
<path d="M431.32 42.9705L438.911 38.6797L456.404 49.2415L448.813 53.8622L431.32 42.9705Z" fill="#0078D4"/>
<path d="M431.32 42.9707L448.813 53.8625L451.123 95.7795L445.512 92.809L429.339 83.5674L431.32 42.9707Z" fill="#0078D4"/>
<path d="M432.31 29.7683L439.901 25.1475L456.074 34.7191L448.482 39.0098L432.31 29.7683Z" fill="#ACF3FD"/>
<path d="M448.483 39.0086L448.813 53.8611L431.32 42.9693L432.31 29.7671L448.483 39.0086Z" fill="#50E6FF"/>
<path d="M448.482 39.0099L456.073 34.7192L456.403 49.2416L448.812 53.8623L448.482 39.0099Z" fill="#ACF3FD"/>
<path d="M491.718 131.754L492.048 140.005L498.979 136.045V127.793L491.718 131.754Z" fill="#50E6FF"/>
<path d="M510.201 121.193V129.444L517.462 125.483V116.902L510.201 121.193Z" fill="#50E6FF"/>
<path d="M473.565 142.646V150.898L480.496 146.607V138.356L473.565 142.646Z" fill="#50E6FF"/>
<path d="M196.95 162.112C196.345 162.112 195.537 161.709 195.133 161.103C194.527 160.093 194.729 158.882 195.739 158.276H195.941C196.95 157.671 198.162 158.074 198.768 158.882C199.373 159.892 198.969 161.103 198.162 161.709C197.758 161.911 197.354 162.112 196.95 162.112Z" fill="#0078D4"/>
<path d="M286.158 191.489L291.812 194.922L293.629 195.931L299.282 199.162L304.128 188.663L286.158 191.489Z" fill="#0078D4"/>
<path d="M348.248 165.232L353.901 168.665L355.719 169.674L361.372 172.905L366.218 162.406L348.248 165.232Z" fill="#C8C8C8"/>
<path d="M215.929 149.19C215.727 149.19 215.525 149.19 215.323 148.988C214.92 148.786 214.314 148.584 214.112 148.181C213.506 147.171 213.708 145.96 214.718 145.354H214.92C215.525 144.95 216.333 144.95 216.939 145.354C217.948 145.96 218.352 147.171 217.746 148.181C217.342 148.786 216.535 149.19 215.929 149.19Z" fill="#0078D4"/>
<path d="M282.652 193.682C282.046 193.682 281.239 193.278 280.835 192.672C280.431 192.067 280.431 191.259 280.633 190.855C280.633 190.653 280.633 190.653 280.835 190.452C281.44 189.442 282.652 189.24 283.661 189.846C284.267 190.25 284.671 190.855 284.671 191.663C284.671 192.269 284.267 193.076 283.661 193.48C283.46 193.48 283.056 193.682 282.652 193.682Z" fill="#0078D4"/>
<path d="M358.568 234.063C357.962 234.063 357.155 233.659 356.751 233.053C356.347 232.448 356.347 231.64 356.549 231.236C356.549 231.236 356.549 231.034 356.751 231.034C357.357 230.025 358.568 229.823 359.376 230.429C359.981 230.832 360.385 231.438 360.385 232.246C360.385 232.851 359.981 233.659 359.376 234.063C359.376 234.063 358.972 234.063 358.568 234.063Z" fill="#0078D4"/>
<path d="M361.14 262.851C360.534 262.851 359.726 262.447 359.322 261.841C358.717 260.832 359.12 259.62 359.928 259.015C360.938 258.409 362.149 258.611 362.755 259.62C363.361 260.63 363.159 261.841 362.149 262.447H361.947C361.745 262.851 361.543 262.851 361.14 262.851Z" fill="#0078D4"/>
<g opacity="0.25" filter="url(#filter1_f)">
<path opacity="0.25" d="M418.892 279.224L384.77 260.851L344.995 283.262L380.328 302.04L418.892 279.224Z" fill="#1F1D21"/>
</g>
<path d="M355.285 236.199C354.679 236.199 353.872 235.796 353.468 235.19C353.064 234.584 353.064 233.777 353.266 233.373C353.266 233.171 353.266 233.171 353.468 232.969C354.074 231.959 355.285 231.757 356.295 232.363C356.9 232.767 357.304 233.373 357.304 234.18C357.304 234.786 356.9 235.594 356.295 235.997C356.093 235.997 355.689 236.199 355.285 236.199Z" fill="#0078D4"/>
<path d="M372.649 263.053C371.841 263.053 371.236 262.649 370.832 262.043C370.226 261.034 370.63 259.822 371.639 259.217C372.649 258.611 373.86 259.015 374.466 260.024C375.072 261.034 374.668 262.245 373.658 262.649H373.456C373.456 263.053 373.053 263.053 372.649 263.053Z" fill="#0078D4"/>
<path d="M403.742 258.813C403.338 258.813 403.136 258.813 402.732 258.409H402.53C401.521 257.804 401.319 256.592 401.924 255.583C402.53 254.573 403.742 254.371 404.751 254.977C405.761 255.583 405.963 256.794 405.357 257.804C404.953 258.409 404.347 258.813 403.742 258.813Z" fill="#0078D4"/>
<path d="M414.644 258.611L376.888 280.619L347.814 265.072L385.57 243.064L414.644 258.611Z" fill="#84ECFD"/>
<path d="M414.645 258.611L414.443 275.773L376.687 297.78L376.889 280.618L414.645 258.611Z" fill="url(#paint0_linear)"/>
<path d="M376.886 280.618L376.684 297.78L347.61 282.234L347.812 265.072L376.886 280.618Z" fill="url(#paint1_linear)"/>
<path d="M414.644 238.824L376.888 260.63L347.814 245.083L385.57 223.277L414.644 238.824Z" fill="#84ECFD"/>
<path d="M414.645 238.824L414.443 255.986L376.687 277.791L376.889 260.629L414.645 238.824Z" fill="url(#paint2_linear)"/>
<path d="M376.886 260.63L376.684 277.792L347.61 262.245L347.812 245.083L376.886 260.63Z" fill="url(#paint3_linear)"/>
<path d="M414.644 218.836L376.888 240.641L347.814 225.095L385.57 203.087L414.644 218.836Z" fill="#84ECFD"/>
<path d="M414.645 218.836L414.443 235.998L376.687 257.803L376.889 240.641L414.645 218.836Z" fill="url(#paint4_linear)"/>
<path d="M376.886 240.641L376.684 257.803L347.61 242.256L347.812 225.094L376.886 240.641Z" fill="url(#paint5_linear)"/>
<path d="M414.644 199.251L376.888 221.057L347.814 205.51L385.57 183.503L414.644 199.251Z" fill="#84ECFD"/>
<path d="M414.645 199.251L414.443 216.413L376.687 238.219L376.889 221.057L414.645 199.251Z" fill="url(#paint6_linear)"/>
<path d="M376.886 221.057L376.684 238.219L347.61 222.672L347.812 205.51L376.886 221.057Z" fill="url(#paint7_linear)"/>
<path d="M387.791 286.474V285.262L386.58 285.868V287.079L387.791 286.474Z" fill="#2195DC"/>
<path d="M387.791 284.657V283.244L386.58 284.051V285.263L387.791 284.657Z" fill="#2195DC"/>
<path d="M387.791 282.638V281.426L386.58 282.032V283.243L387.791 282.638Z" fill="#2195DC"/>
<path d="M387.791 280.619V279.407L386.58 280.013V281.224L387.791 280.619Z" fill="#2195DC"/>
<path d="M385.974 287.282V286.07L384.763 286.676V287.887L385.974 287.282Z" fill="#2195DC"/>
<path d="M385.974 285.464V284.253L384.763 284.859V286.07L385.974 285.464Z" fill="#2195DC"/>
<path d="M385.974 283.647V282.436L384.763 283.042V284.253L385.974 283.647Z" fill="#2195DC"/>
<path d="M385.974 281.628V280.417L384.763 281.022V282.234L385.974 281.628Z" fill="#2195DC"/>
<path d="M384.359 288.291V287.079L383.147 287.685V288.896L384.359 288.291Z" fill="#2195DC"/>
<path d="M384.359 286.474V285.262L383.147 285.868V287.079L384.359 286.474Z" fill="#2195DC"/>
<path d="M384.359 284.657V283.445L383.147 284.051V285.262L384.359 284.657Z" fill="#2195DC"/>
<path d="M384.359 282.638V281.426L383.147 282.032V283.243L384.359 282.638Z" fill="#2195DC"/>
<path d="M382.744 289.301V288.09L381.532 288.695V289.907L382.744 289.301Z" fill="#2195DC"/>
<path d="M382.744 287.282V286.07L381.532 286.676V287.887L382.744 287.282Z" fill="#2195DC"/>
<path d="M382.744 285.464V284.253L381.532 284.859V286.07L382.744 285.464Z" fill="#2195DC"/>
<path d="M382.744 283.647V282.436L381.532 283.042V284.253L382.744 283.647Z" fill="#2195DC"/>
<path d="M385.972 239.833L387.588 238.824V240.641L385.972 241.65V239.833ZM387.184 239.833L386.578 240.237V240.843L387.184 240.439V239.833Z" fill="#45CAF2"/>
<path d="M385.972 242.257L387.588 241.248V243.065L385.972 244.074V242.257ZM387.184 242.257L386.578 242.661V243.267L387.184 242.863V242.257Z" fill="#45CAF2"/>
<path d="M385.972 244.882L387.588 243.872V245.689L385.972 246.699V244.882ZM387.184 244.882L386.578 245.285V245.891L387.184 245.487V244.882Z" fill="#45CAF2"/>
<path d="M383.953 246.093L385.568 245.083V246.9L383.953 247.91V246.093ZM384.962 246.093L384.356 246.497V247.102L384.962 246.698V246.093Z" fill="#45CAF2"/>
<path d="M383.753 241.045L385.369 240.036V241.853L383.753 242.863V241.045ZM384.965 241.045L384.359 241.449V242.055L384.965 241.651V241.045Z" fill="#45CAF2"/>
<path d="M383.753 243.67L385.369 242.661V244.478L383.753 245.488V243.67ZM384.965 243.67L384.359 244.074V244.68L384.965 244.276V243.67Z" fill="#45CAF2"/>
<path d="M381.532 242.257L383.147 241.248V243.065L381.532 244.074V242.257ZM382.744 242.257L382.138 242.661V243.267L382.744 242.863V242.257Z" fill="#45CAF2"/>
<path d="M381.532 244.882L383.147 243.872V245.689L381.532 246.699V244.882ZM382.744 244.882L382.138 245.285V245.891L382.744 245.487V244.882Z" fill="#45CAF2"/>
<path d="M381.532 247.304L383.147 246.295V248.112L381.532 249.122V247.304ZM382.744 247.304L382.138 247.708V248.314L382.744 247.91V247.304Z" fill="#45CAF2"/>
<path d="M387.792 266.283V264.466L386.177 265.273V267.293L387.792 266.283Z" fill="#32B0E7"/>
<path d="M387.792 261.236V259.217L386.177 260.226V262.043L387.792 261.236Z" fill="#32B0E7"/>
<path d="M387.792 263.861V262.043L386.177 262.851V264.668L387.792 263.861Z" fill="#32B0E7"/>
<path d="M385.571 265.072V263.255L383.753 264.063V266.082L385.571 265.072Z" fill="#32B0E7"/>
<path d="M385.571 267.495V265.677L383.753 266.687V268.504L385.571 267.495Z" fill="#32B0E7"/>
<path d="M385.571 262.447L385.369 260.629L383.753 261.437V263.254L385.571 262.447Z" fill="#32B0E7"/>
<path d="M383.35 263.861V262.043L381.735 262.851V264.668L383.35 263.861Z" fill="#32B0E7"/>
<path d="M383.35 266.283V264.466L381.735 265.475V267.293L383.35 266.283Z" fill="#32B0E7"/>
<path d="M383.35 268.908V267.091L381.735 268.1V269.918L383.35 268.908Z" fill="#32B0E7"/>
<path d="M385.974 226.71V223.48L383.147 225.095V228.325L385.974 226.71Z" fill="#50E6FF"/>
<path d="M381.532 224.085L387.589 220.451V227.518L381.532 231.152V224.085ZM386.58 222.47L382.744 224.691V229.133L386.58 226.912V222.47Z" fill="#50E6FF"/>
<g filter="url(#filter2_f)">
<path d="M336.46 238.982C336.505 230.569 324.725 223.685 310.147 223.606C295.569 223.527 283.715 230.283 283.669 238.696C283.624 247.109 295.404 253.993 309.982 254.072C324.56 254.151 336.414 247.395 336.46 238.982Z" fill="url(#paint8_linear)" fill-opacity="0.5"/>
</g>
<g opacity="0.3">
<path opacity="0.3" d="M320.807 227.763C330.135 233.163 330.135 241.509 320.807 246.91C311.478 252.31 296.75 252.31 287.913 246.91C278.585 241.509 278.585 233.163 287.913 227.763C296.75 222.362 311.478 222.362 320.807 227.763Z" fill="black"/>
</g>
<path d="M328.172 229.725V234.144C328.172 237.58 325.717 241.017 321.298 243.963C311.97 249.363 296.751 249.363 287.423 243.963C282.513 241.017 280.549 237.58 280.549 234.144V229.725C280.549 233.162 283.004 237.089 287.423 239.544C296.751 244.945 311.97 244.945 321.298 239.544C325.717 237.089 328.172 233.653 328.172 229.725Z" fill="#E6E6E6"/>
<path d="M329.153 194.87V230.218C329.153 233.655 326.698 237.583 321.788 240.528C311.969 245.929 296.259 245.929 286.44 240.528C283.985 239.055 282.021 237.583 281.039 236.11C280.057 235.128 279.075 233.164 279.075 231.691V193.397C279.075 193.397 281.53 196.833 286.44 199.779C296.259 205.18 311.969 205.18 321.788 199.779C326.698 196.833 329.153 198.306 329.153 194.87Z" fill="url(#paint9_linear)"/>
<path d="M329.153 190.94V195.359C329.153 198.796 326.698 202.723 321.788 205.669C311.969 211.07 296.259 211.07 286.44 205.669C281.53 202.723 279.075 199.287 279.075 195.359V190.94C279.075 194.868 281.53 198.305 286.44 201.25C296.259 206.651 311.969 206.651 321.788 201.25C326.698 198.305 329.153 194.377 329.153 190.94Z" fill="#E6E6E6"/>
<path d="M321.788 181.613C331.607 187.013 331.607 196.341 321.788 201.742C311.969 207.142 296.259 207.142 286.44 201.742C276.62 196.341 276.62 187.013 286.44 181.613C296.259 176.212 311.969 176.212 321.788 181.613Z" fill="white"/>
<path d="M317.371 184.067C324.735 188.486 324.735 195.359 317.371 199.778C310.006 204.196 298.224 204.196 290.368 199.778C283.004 195.359 283.004 188.486 290.368 184.067C298.224 179.649 310.006 179.649 317.371 184.067Z" fill="#AEF3FF"/>
<path d="M290.368 186.752C297.732 182.333 309.515 182.333 317.371 186.752C320.316 188.715 322.28 190.679 322.771 193.134C323.262 189.697 321.789 186.261 317.371 183.806C310.006 179.387 297.732 179.387 290.368 183.806C285.95 186.261 284.477 189.697 284.968 193.134C285.459 191.17 286.931 188.715 290.368 186.752Z" fill="#50E6FF"/>
<path d="M222.087 284.668L227.741 287.898L229.76 288.908L235.413 292.34L240.259 281.841L222.087 284.668Z" fill="#C8C8C8"/>
<g filter="url(#filter3_f)">
<path d="M197.506 346.682C197.552 338.269 185.771 331.385 171.194 331.306C156.616 331.226 144.761 337.982 144.716 346.395C144.67 354.808 156.451 361.692 171.028 361.772C185.606 361.851 197.46 355.095 197.506 346.682Z" fill="url(#paint10_linear)" fill-opacity="0.5"/>
</g>
<g opacity="0.3">
<path opacity="0.3" d="M181.853 335.462C191.181 340.862 191.181 349.208 181.853 354.609C172.525 360.009 157.796 360.009 148.959 354.609C139.631 349.208 139.631 340.862 148.959 335.462C157.796 330.061 172.525 330.061 181.853 335.462Z" fill="black"/>
</g>
<path d="M189.218 337.425V341.843C189.218 345.28 186.763 348.716 182.345 351.662C173.017 357.063 157.797 357.063 148.469 351.662C143.559 348.716 141.596 345.28 141.596 341.843V337.425C141.596 340.861 144.05 344.789 148.469 347.244C157.797 352.644 173.017 352.644 182.345 347.244C186.763 344.789 189.218 341.352 189.218 337.425Z" fill="#E6E6E6"/>
<path d="M190.199 302.569V337.917C190.199 341.354 187.744 345.282 182.835 348.227C173.016 353.628 157.305 353.628 147.486 348.227C145.031 346.754 143.067 345.282 142.085 343.809C141.104 342.827 140.122 340.863 140.122 339.39V301.096C140.122 301.096 142.576 304.532 147.486 307.478C157.305 312.879 173.016 312.879 182.835 307.478C187.744 304.532 190.199 306.005 190.199 302.569Z" fill="url(#paint11_linear)"/>
<path d="M190.199 298.639V303.058C190.199 306.495 187.744 310.422 182.835 313.368C173.016 318.769 157.305 318.769 147.486 313.368C142.576 310.422 140.122 306.986 140.122 303.058V298.639C140.122 302.567 142.576 306.004 147.486 308.949C157.305 314.35 173.016 314.35 182.835 308.949C187.744 306.004 190.199 302.076 190.199 298.639Z" fill="#E6E6E6"/>
<path d="M182.835 289.312C192.654 294.712 192.654 304.04 182.835 309.441C173.016 314.841 157.305 314.841 147.486 309.441C137.667 304.04 137.667 294.712 147.486 289.312C157.305 283.911 173.016 283.911 182.835 289.312Z" fill="white"/>
<path d="M178.417 291.767C185.781 296.185 185.781 303.058 178.417 307.477C171.053 311.896 159.27 311.896 151.415 307.477C144.05 303.058 144.05 296.185 151.415 291.767C159.27 287.348 171.053 287.348 178.417 291.767Z" fill="#AEF3FF"/>
<path d="M151.414 294.451C158.779 290.032 170.562 290.032 178.417 294.451C181.363 296.415 183.326 298.378 183.817 300.833C184.308 297.397 182.835 293.96 178.417 291.505C171.053 287.087 158.779 287.087 151.414 291.505C146.996 293.96 145.523 297.397 146.014 300.833C146.505 298.869 147.978 296.415 151.414 294.451Z" fill="#50E6FF"/>
<g opacity="0.4" filter="url(#filter4_f)">
<path opacity="0.4" d="M186.427 187.549L217.521 169.377L248.816 187.549L218.53 205.72L186.427 187.549Z" fill="#1F1D21"/>
</g>
<path d="M249.421 145.552L217.924 127.785L187.032 145.552L218.126 163.724L249.421 145.552Z" fill="#50E6FF"/>
<path d="M217.52 163.522L217.722 199.865L249.421 181.693V145.552L217.52 163.522Z" fill="#243A5E"/>
<path d="M217.521 163.522L187.033 145.351V181.492L217.723 199.663L217.521 163.522Z" fill="#1D4A79"/>
<path d="M249.422 145.552L244.778 142.726C228.424 133.034 208.032 132.832 191.476 142.322L186.832 145.552L217.319 163.724L249.422 145.552Z" fill="#156AB3"/>
<path d="M229.635 167.56L229.837 170.387L243.163 162.714L242.961 159.888L229.635 167.56Z" fill="#50E6FF"/>
<path d="M226.203 169.579V172.406L228.625 170.992V168.166L226.203 169.579Z" fill="#50E6FF"/>
<path d="M229.635 173.213L229.837 176.04L243.163 168.368L242.961 165.541L229.635 173.213Z" fill="#50E6FF"/>
<path d="M226.203 175.233V178.06L228.625 176.848V174.021L226.203 175.233Z" fill="#50E6FF"/>
<g opacity="0.4" filter="url(#filter5_f)">
<path opacity="0.4" d="M258.988 338.911L290.082 320.74L321.377 338.911L291.091 357.083L258.988 338.911Z" fill="#1F1D21"/>
</g>
<path d="M321.982 296.915L290.485 279.147L259.593 296.915L290.687 315.086L321.982 296.915Z" fill="#50E6FF"/>
<path d="M290.081 314.885L290.283 351.228L321.982 333.056V296.915L290.081 314.885Z" fill="#243A5E"/>
<path d="M290.082 314.885L259.594 296.714V332.855L290.284 351.026L290.082 314.885Z" fill="#1D4A79"/>
<path d="M321.983 296.915L317.339 294.088C300.985 284.397 280.592 284.195 264.036 293.685L259.393 296.915L289.88 315.087L321.983 296.915Z" fill="#156AB3"/>
<path d="M302.196 318.923L302.398 321.75L315.724 314.077L315.522 311.25L302.196 318.923Z" fill="#50E6FF"/>
<path d="M298.763 320.942V323.769L301.186 322.355V319.529L298.763 320.942Z" fill="#50E6FF"/>
<path d="M302.196 324.576L302.398 327.403L315.724 319.73L315.522 316.904L302.196 324.576Z" fill="#50E6FF"/>
<path d="M298.763 326.596V329.422L301.186 328.211V325.384L298.763 326.596Z" fill="#50E6FF"/>
<path d="M115.212 296.177L120.866 299.408L122.885 300.417L128.538 303.85L133.384 293.351L115.212 296.177Z" fill="#C8C8C8"/>
<g opacity="0.4" filter="url(#filter6_f)">
<path opacity="0.4" d="M17.7727 362.365L48.8661 344.194L80.1613 362.365L49.8756 380.536L17.7727 362.365Z" fill="#1F1D21"/>
</g>
<path d="M80.7663 320.369L49.2692 302.601L18.3777 320.369L49.4711 338.54L80.7663 320.369Z" fill="#50E6FF"/>
<path d="M48.8657 338.338L49.0676 374.681L80.7666 356.51V320.369L48.8657 338.338Z" fill="#243A5E"/>
<path d="M48.8661 338.339L18.3784 320.167V356.308L49.068 374.48L48.8661 338.339Z" fill="#1D4A79"/>
<path d="M80.7675 320.369L76.1237 317.542C59.7694 307.851 39.377 307.649 22.8208 317.138L18.177 320.369L48.6646 338.54L80.7675 320.369Z" fill="#156AB3"/>
<path d="M60.9805 342.376L61.1824 345.203L74.5081 337.531L74.3062 334.704L60.9805 342.376Z" fill="#50E6FF"/>
<path d="M57.5476 344.396V347.222L59.9704 345.809V342.982L57.5476 344.396Z" fill="#50E6FF"/>
<path d="M60.9805 348.03L61.1824 350.856L74.5081 343.184L74.3062 340.357L60.9805 348.03Z" fill="#50E6FF"/>
<path d="M57.5476 350.049V352.876L59.9704 351.665V348.838L57.5476 350.049Z" fill="#50E6FF"/>
<g opacity="0.2">
<path opacity="0.2" d="M178.845 242.432L206.793 258.51L211.277 256.078L183.419 240L178.845 242.432Z" fill="#1F1D21"/>
</g>
<path d="M198.847 219.624L206.792 224.205L206.696 256.264L178.837 240.186L178.934 199.615L198.847 211.112V219.624Z" fill="#243A5E"/>
<path d="M200.151 224.206V226.451L184.073 217.103V214.768L200.151 224.206Z" fill="#0078D4"/>
<path d="M200.151 228.599V230.935L184.073 221.587V219.251L200.151 228.599Z" fill="#0078D4"/>
<path d="M200.151 232.987V235.233L184.073 225.884V223.549L200.151 232.987Z" fill="#0078D4"/>
<path d="M178.935 199.622L182.584 197.473L202.496 208.97L198.848 211.119L178.935 199.622Z" fill="#185A97"/>
<path d="M206.794 224.205L210.442 222.146L210.345 254.115L206.697 256.264L206.794 224.205Z" fill="#1D4A79"/>
<path d="M198.847 211.119L202.495 208.97L210.441 222.153L206.793 224.212L198.847 211.119Z" fill="#156AB3"/>
<path d="M198.847 211.119L206.793 224.205L198.847 219.624V211.119Z" fill="#0078D4"/>
<g opacity="0.4" filter="url(#filter7_f)">
<path opacity="0.4" d="M199.466 243.613L157.192 267.693L181.98 280.951L224.239 256.872L199.466 243.613Z" fill="url(#paint12_linear)"/>
</g>
<g opacity="0.2">
<path opacity="0.2" d="M165.296 249.86L193.244 266.034L197.728 263.602L169.78 247.428L165.296 249.86Z" fill="#1F1D21"/>
</g>
<path d="M185.582 226.918L193.527 231.498L193.431 263.557L165.572 247.48L165.669 206.908L185.582 218.405V226.918Z" fill="#0078D4"/>
<path d="M186.894 231.536V233.872L170.72 224.524V222.188L186.894 231.536Z" fill="#32B0E7"/>
<path d="M186.894 236.027V238.363L170.72 229.015V226.679L186.894 236.027Z" fill="#32B0E7"/>
<path d="M186.894 240.325V242.66L170.72 233.312V230.976L186.894 240.325Z" fill="#32B0E7"/>
<path d="M165.674 207.05L169.322 204.901L189.234 216.398L185.586 218.547L165.674 207.05Z" fill="#32B0E7"/>
<path d="M193.516 231.498L197.164 229.439L197.067 261.408L193.419 263.557L193.516 231.498Z" fill="#156AB3"/>
<path d="M185.58 218.547L189.229 216.398L197.174 229.581L193.526 231.64L185.58 218.547Z" fill="#45CAF2"/>
<path d="M185.582 218.547L193.527 231.633L185.485 227.052L185.582 218.547Z" fill="#32B0E7"/>
<g opacity="0.2">
<path opacity="0.2" d="M151.918 257.522L179.866 273.697L184.351 271.264L156.403 255.09L151.918 257.522Z" fill="#1F1D21"/>
</g>
<path d="M172.018 234.804L179.963 239.385L179.867 271.444L152.008 255.366L152.105 214.795L172.018 226.292V234.804Z" fill="#45CAF2"/>
<path d="M173.33 239.296V241.631L157.252 232.283V229.948L173.33 239.296Z" fill="#84ECFD"/>
<path d="M173.33 243.78V246.115L157.252 236.767V234.431L173.33 243.78Z" fill="#84ECFD"/>
<path d="M173.33 248.084V250.419L157.252 241.071V238.735L173.33 248.084Z" fill="#84ECFD"/>
<path d="M172.018 226.299L175.666 224.15V232.656L172.018 234.805V226.299Z" fill="#0078D4"/>
<path d="M152.105 214.802L155.753 212.654L175.665 224.151L172.017 226.299L152.105 214.802Z" fill="#6ED5ED"/>
<path d="M172.018 226.299L175.666 224.15L183.612 237.237L179.963 239.385L172.018 226.299Z" fill="#50E6FF"/>
<path d="M179.964 239.386L183.612 237.237L183.515 269.296L179.867 271.445L179.964 239.386Z" fill="#32B0E7"/>
<path d="M172.018 226.299L179.963 239.385L172.018 234.804V226.299Z" fill="#84ECFD"/>
<path d="M124.725 211.744L130.379 214.974L132.398 215.984L138.051 219.416L142.897 208.917L124.725 211.744Z" fill="#C8C8C8"/>
<g filter="url(#filter8_f)">
<path d="M98.9805 267.224C99.0213 259.695 85.087 253.516 67.8574 253.422C50.6278 253.329 36.6273 259.357 36.5865 266.886C36.5456 274.415 50.4799 280.595 67.7096 280.688C84.9392 280.782 98.9397 274.754 98.9805 267.224Z" fill="#1F1D21" fill-opacity="0.15"/>
</g>
<path d="M48.4052 258.185C48.4722 258.23 48.5393 258.275 48.6063 258.312L45.9842 259.839C45.9171 259.802 45.8501 259.757 45.783 259.712C45.4776 259.511 45.1871 259.25 44.9189 258.945C45.7905 258.439 46.6695 257.925 47.5411 257.418C47.8092 257.716 48.0997 257.977 48.4052 258.185Z" fill="#0078D4"/>
<path d="M48.6061 258.311C49.3063 258.714 49.9395 258.758 50.4013 258.49L47.7792 260.017C47.3173 260.285 46.6841 260.241 45.9839 259.838C46.7661 259.377 47.8164 258.766 48.6061 258.311Z" fill="#0078D4"/>
<path d="M46.103 254.2C46.17 255.295 46.7436 256.524 47.5407 257.418C46.6691 257.925 45.7901 258.439 44.9185 258.945C44.1214 258.051 43.5478 256.815 43.4808 255.727C43.4212 254.803 43.7117 254.155 44.2108 253.865L46.833 252.338C46.3413 252.628 46.0508 253.276 46.103 254.2Z" fill="#0078D4"/>
<path d="M44.2112 253.865L46.8334 252.338C47.2952 252.069 47.9284 252.107 48.6286 252.516L46.0065 254.043C45.3063 253.641 44.6656 253.604 44.2112 253.865Z" fill="#50E6FF"/>
<path d="M50.4012 258.483L47.7791 260.01C48.2782 259.72 48.5612 259.079 48.5091 258.155C48.4197 256.695 47.4289 254.997 46.2073 254.17C46.1402 254.125 46.0732 254.08 46.0061 254.043L48.6283 252.516C48.6953 252.553 48.7624 252.598 48.8294 252.643C50.0511 253.462 51.0418 255.168 51.1312 256.628C51.1908 257.552 50.9003 258.2 50.4012 258.483Z" fill="#50E6FF"/>
<path d="M53.7985 258.722C53.8878 259.794 54.454 260.986 55.2287 261.858C54.3572 262.364 53.4781 262.878 52.6066 263.385C51.8318 262.513 51.2657 261.321 51.1763 260.249C52.0553 259.742 52.9269 259.228 53.7985 258.722Z" fill="#0078D4"/>
<path d="M53.7985 258.721C52.9269 259.228 52.0479 259.742 51.1764 260.248C51.1764 260.219 51.1689 260.196 51.1689 260.167C52.0405 259.66 52.9195 259.146 53.7911 258.639C53.7985 258.669 53.7985 258.692 53.7985 258.721Z" fill="#0078D4"/>
<path d="M56.0927 262.625C56.1597 262.67 56.2268 262.714 56.2938 262.752L53.6717 264.279C53.6046 264.241 53.5376 264.197 53.4705 264.152C53.1651 263.951 52.8746 263.69 52.6064 263.385C53.478 262.878 54.357 262.364 55.2286 261.858C55.4967 262.156 55.7873 262.416 56.0927 262.625Z" fill="#0078D4"/>
<path d="M56.2936 262.752C56.9938 263.154 57.627 263.199 58.0889 262.93L55.4667 264.458C55.0049 264.726 54.3717 264.681 53.6714 264.279C54.4611 263.817 55.5114 263.206 56.2936 262.752Z" fill="#0078D4"/>
<path d="M54.5281 256.778C54.029 257.068 53.7385 257.709 53.7981 258.64C52.9265 259.146 52.0475 259.66 51.1759 260.167C51.1163 259.243 51.4069 258.595 51.906 258.305C52.6881 257.85 53.7385 257.239 54.5281 256.778Z" fill="#0078D4"/>
<path d="M51.8987 258.304L54.5209 256.777C54.9827 256.509 55.6159 256.546 56.3161 256.956L53.694 258.483C52.9937 258.081 52.3606 258.044 51.8987 258.304Z" fill="#50E6FF"/>
<path d="M58.0887 262.923L55.4665 264.451C55.9656 264.16 56.2487 263.519 56.1966 262.596C56.1072 261.136 55.1164 259.437 53.8947 258.61C53.8277 258.566 53.7606 258.521 53.6936 258.484L56.3158 256.957C56.3828 256.994 56.4498 257.038 56.5169 257.083C57.7386 257.903 58.7293 259.608 58.8187 261.069C58.8783 261.992 58.5878 262.64 58.0887 262.923Z" fill="#50E6FF"/>
<path d="M63.7805 267.065C63.8476 267.109 63.9146 267.154 63.9817 267.191L61.3595 268.719C61.2925 268.681 61.2254 268.637 61.1584 268.592C60.3911 268.085 59.7207 267.221 59.3035 266.29C60.1751 265.783 61.0541 265.269 61.9257 264.763C62.3428 265.694 63.0207 266.551 63.7805 267.065Z" fill="#0078D4"/>
<path d="M63.9818 267.184C64.682 267.586 65.3152 267.631 65.777 267.362L63.1549 268.889C62.693 269.158 62.0599 269.113 61.3596 268.711C62.1492 268.256 63.1996 267.645 63.9818 267.184Z" fill="#0078D4"/>
<path d="M61.4858 263.079C61.523 263.623 61.6795 264.204 61.9253 264.763C61.0537 265.269 60.1747 265.783 59.3032 266.29C59.0499 265.731 58.8935 265.15 58.8637 264.606C58.8041 263.683 59.0946 263.034 59.5937 262.744L62.2158 261.217C61.7167 261.507 61.4262 262.155 61.4858 263.079Z" fill="#0078D4"/>
<path d="M59.5864 262.744L62.2085 261.217C62.6704 260.949 63.3036 260.986 64.0038 261.396L61.3817 262.923C60.6814 262.521 60.0482 262.476 59.5864 262.744Z" fill="#50E6FF"/>
<path d="M65.7769 267.363L63.1547 268.89C63.6538 268.6 63.9369 267.959 63.8847 267.035C63.7953 265.575 62.8046 263.877 61.5829 263.05C61.5159 263.005 61.4488 262.961 61.3818 262.923L64.0039 261.396C64.071 261.433 64.138 261.478 64.2051 261.523C65.4267 262.342 66.4175 264.048 66.5069 265.508C66.5665 266.432 66.276 267.073 65.7769 267.363Z" fill="#50E6FF"/>
<path d="M70.8943 277.62L68.2722 279.148C69.5237 278.418 70.4846 277.196 71.0582 275.535L73.6804 274.008C73.1142 275.669 72.1458 276.89 70.8943 277.62Z" fill="#4ABAFF"/>
<path d="M74.7085 273.665L71.0583 275.751V275.535C69.5387 279.959 65.2032 281.293 60.1004 278.35L47.2057 270.909C40.8589 267.236 35.7189 258.342 35.7413 251.034C35.7636 243.741 40.9185 240.791 47.2653 244.449L60.1749 251.898C65.3 254.855 69.6281 261.224 71.103 267.407L74.7085 273.665ZM61.3594 268.711C62.8194 269.553 63.9964 268.808 63.8847 267.027C63.7953 265.567 62.8045 263.869 61.5828 263.042C61.5158 262.997 61.4488 262.953 61.3817 262.915C59.9216 262.074 58.7447 262.819 58.8564 264.599C58.9458 266.059 59.9365 267.772 61.1582 268.584C61.2253 268.629 61.2923 268.674 61.3594 268.711ZM53.6717 264.271C55.1318 265.113 56.3087 264.368 56.197 262.588C56.1076 261.128 55.1169 259.429 53.8952 258.602C53.8281 258.558 53.7611 258.513 53.694 258.476C52.234 257.634 51.057 258.379 51.1687 260.159C51.2581 261.619 52.2489 263.333 53.4706 264.145C53.5376 264.197 53.6047 264.234 53.6717 264.271ZM45.984 259.831C47.4441 260.673 48.6211 259.928 48.5093 258.148C48.42 256.688 47.4292 254.989 46.2075 254.163C46.1405 254.118 46.0734 254.073 46.0064 254.036C44.5463 253.194 43.3693 253.939 43.4811 255.719C43.5705 257.18 44.5612 258.893 45.7829 259.705C45.85 259.757 45.917 259.794 45.984 259.831Z" fill="#0078D4"/>
<path d="M46.0063 254.044C46.0734 254.081 46.1404 254.125 46.2074 254.17C47.4291 254.99 48.4199 256.695 48.5093 258.156C48.621 259.928 47.444 260.681 45.984 259.839C45.9169 259.802 45.8499 259.757 45.7828 259.712C44.5612 258.9 43.5704 257.187 43.481 255.727C43.3693 253.947 44.5463 253.202 46.0063 254.044Z" fill="#50E6FF"/>
<path d="M53.6939 258.483C53.761 258.521 53.828 258.565 53.8951 258.61C55.1167 259.43 56.1075 261.135 56.1969 262.595C56.3086 264.368 55.1316 265.121 53.6716 264.279C53.6045 264.242 53.5375 264.197 53.4704 264.152C52.2488 263.34 51.258 261.627 51.1686 260.167C51.0643 258.387 52.2339 257.642 53.6939 258.483Z" fill="#50E6FF"/>
<path d="M39.1006 243.652L41.7228 242.125C43.8086 240.91 46.6989 241.082 49.8872 242.922L47.265 244.449C44.0767 242.609 41.1864 242.437 39.1006 243.652Z" fill="#4ABAFF"/>
<path d="M61.3817 262.923C61.4487 262.96 61.5157 263.005 61.5828 263.049C62.8045 263.869 63.7952 265.575 63.8846 267.035C63.9964 268.808 62.8194 269.56 61.3593 268.718C61.2923 268.681 61.2252 268.636 61.1582 268.592C59.9365 267.78 58.9457 266.066 58.8563 264.606C58.7521 262.826 59.9216 262.081 61.3817 262.923Z" fill="#50E6FF"/>
<path d="M47.2654 244.449L49.8875 242.922L62.7971 250.378L60.1675 251.898L47.2654 244.449Z" fill="#4ABAFF"/>
<path d="M71.0957 267.408L73.7178 265.881L77.3307 272.138L74.7086 273.665L71.0957 267.408Z" fill="#4ABAFF"/>
<path d="M60.1675 251.898L62.7897 250.371C67.9148 253.328 72.2428 259.698 73.7177 265.88L71.0956 267.408C69.6281 261.225 65.2926 254.856 60.1675 251.898Z" fill="#4ABAFF"/>
<path d="M57.0388 229.104L59.6609 227.577L63.1696 225.573L60.54 227.1L57.0388 229.104Z" fill="#50E6FF"/>
<path d="M71.0435 236.203C71.051 236.218 71.0584 236.233 71.0659 236.248C70.1943 236.754 69.3153 237.268 68.4437 237.775C68.4363 237.76 68.4288 237.745 68.4214 237.73C69.293 237.224 70.1645 236.717 71.0435 236.203Z" fill="#50E6FF"/>
<path d="M71.0437 236.203C70.1722 236.709 69.2932 237.223 68.4216 237.73C68.3248 237.566 68.2428 237.395 68.1609 237.223C68.6004 236.97 69.0324 236.717 69.4719 236.464C69.9114 236.21 70.351 235.957 70.7905 235.696C70.8575 235.868 70.9469 236.039 71.0437 236.203Z" fill="#50E6FF"/>
<path d="M70.4176 234.579C70.4921 234.951 70.6187 235.331 70.7826 235.704C70.2835 235.994 69.7919 236.277 69.2928 236.568C69.1214 236.665 68.9575 236.761 68.7862 236.866C68.6298 236.955 68.4659 237.052 68.3095 237.141C68.2648 237.171 68.2126 237.231 68.1605 237.231C67.9966 236.858 67.8699 236.486 67.7954 236.106C68.667 235.592 69.5386 235.085 70.4176 234.579Z" fill="#50E6FF"/>
<path d="M70.4176 234.579C69.546 235.085 68.667 235.599 67.7954 236.106V236.098C68.667 235.592 69.546 235.078 70.4176 234.571C70.4176 234.571 70.4176 234.571 70.4176 234.579Z" fill="#50E6FF"/>
<path d="M70.3658 234.288C70.3807 234.378 70.3956 234.475 70.4105 234.564C70.202 234.691 69.9859 234.81 69.7773 234.936C69.5464 235.071 69.3229 235.197 69.092 235.331C68.9877 235.391 68.8536 235.473 68.7493 235.532C68.6451 235.592 68.511 235.666 68.4141 235.726C68.2055 235.845 67.997 235.972 67.7884 236.091C67.766 235.994 67.7511 235.905 67.7437 235.815C68.6153 235.309 69.4943 234.795 70.3658 234.288Z" fill="#50E6FF"/>
<path d="M70.3658 234.289C69.4943 234.795 68.6153 235.309 67.7437 235.816C67.7288 235.727 67.7214 235.63 67.7139 235.54C68.5855 235.034 69.4645 234.52 70.3361 234.013C70.3435 234.103 70.3584 234.199 70.3658 234.289Z" fill="#50E6FF"/>
<path d="M72.6375 237.998C72.7046 238.043 72.7716 238.088 72.8386 238.125L70.2165 239.652C70.1494 239.615 70.0824 239.57 70.0154 239.525C69.4045 239.116 68.8533 238.49 68.4436 237.775C69.3151 237.268 70.1941 236.754 71.0657 236.248C71.4754 236.963 72.0267 237.596 72.6375 237.998Z" fill="#50E6FF"/>
<path d="M72.8387 238.125C73.539 238.527 74.1796 238.572 74.634 238.304L72.0119 239.831C71.55 240.099 70.9168 240.062 70.2166 239.652C70.9988 239.19 72.0491 238.579 72.8387 238.125Z" fill="#50E6FF"/>
<path d="M71.073 232.158C70.5739 232.448 70.2833 233.089 70.3429 234.013C69.4714 234.519 68.5924 235.033 67.7208 235.54C67.6612 234.616 67.9517 233.968 68.4508 233.685C69.233 233.223 70.2833 232.612 71.073 232.158Z" fill="#50E6FF"/>
<path d="M68.4436 233.685L71.0657 232.158C71.5276 231.89 72.1608 231.927 72.861 232.337L70.2388 233.864C69.5386 233.455 68.9054 233.417 68.4436 233.685Z" fill="#0078D4"/>
<path d="M70.2391 233.864C70.3061 233.901 70.3731 233.946 70.4402 233.99C71.6693 234.81 72.6526 236.516 72.742 237.976C72.8538 239.749 71.6768 240.501 70.2167 239.652C70.1497 239.615 70.0826 239.57 70.0156 239.525C68.7939 238.713 67.8031 237 67.7137 235.54C67.6095 233.767 68.779 233.015 70.2391 233.864Z" fill="#0078D4"/>
<path d="M74.634 238.304L72.0119 239.831C72.511 239.54 72.7941 238.9 72.7419 237.976C72.6525 236.516 71.6692 234.81 70.4401 233.991C70.3731 233.946 70.306 233.901 70.239 233.864L72.8611 232.337C72.9282 232.374 72.9952 232.419 73.0623 232.464C74.2914 233.283 75.2747 234.989 75.3641 236.449C75.4237 237.365 75.1332 238.013 74.634 238.304Z" fill="#0078D4"/>
<path d="M80.3326 242.438C80.3996 242.483 80.4667 242.528 80.5337 242.565L77.9041 244.092C77.8371 244.055 77.77 244.01 77.703 243.965C76.9357 243.459 76.2653 242.595 75.8481 241.664C76.7197 241.157 77.5987 240.643 78.4702 240.136C78.8949 241.068 79.5653 241.932 80.3326 242.438Z" fill="#50E6FF"/>
<path d="M80.5337 242.564C81.2339 242.966 81.8746 243.011 82.329 242.743L79.7068 244.27C79.245 244.538 78.6118 244.501 77.9116 244.091C78.6937 243.629 79.7441 243.019 80.5337 242.564Z" fill="#50E6FF"/>
<path d="M78.0305 238.453C78.0677 238.996 78.2242 239.577 78.47 240.136C78.2614 240.263 78.0454 240.382 77.8368 240.509C77.6059 240.643 77.3824 240.769 77.1515 240.903C77.0472 240.963 76.9131 241.045 76.8088 241.104C76.7045 241.164 76.5704 241.239 76.4736 241.298C76.265 241.417 76.0564 241.544 75.8478 241.663C75.5946 241.104 75.4381 240.523 75.4083 239.98C75.3487 239.056 75.6393 238.408 76.1384 238.125L78.7605 236.598C78.2614 236.888 77.9709 237.529 78.0305 238.453Z" fill="#50E6FF"/>
<path d="M76.1311 238.125L78.7533 236.598C79.2151 236.329 79.8483 236.367 80.5485 236.776L77.9264 238.303C77.2262 237.894 76.593 237.857 76.1311 238.125Z" fill="#0078D4"/>
<path d="M77.9338 238.304C78.0008 238.341 78.0679 238.386 78.1349 238.431C79.364 239.25 80.3474 240.956 80.4367 242.416C80.5485 244.189 79.3715 244.941 77.9114 244.1C77.8444 244.062 77.7773 244.018 77.7103 243.973C76.4886 243.161 75.4979 241.448 75.4085 239.988C75.2967 238.207 76.4663 237.455 77.9338 238.304Z" fill="#0078D4"/>
<path d="M82.3289 242.743L79.7068 244.27C80.2059 243.98 80.4889 243.339 80.4368 242.415C80.3474 240.955 79.3641 239.25 78.135 238.43C78.0679 238.385 78.0009 238.341 77.9338 238.303L80.556 236.776C80.623 236.814 80.6901 236.858 80.7571 236.903C81.9862 237.722 82.9696 239.428 83.0589 240.888C83.1111 241.805 82.8206 242.453 82.3289 242.743Z" fill="#0078D4"/>
<path d="M88.0204 246.878C88.0874 246.922 88.1545 246.967 88.2215 247.004L85.5994 248.532C85.5323 248.494 85.4653 248.45 85.3982 248.405C84.7874 247.995 84.2361 247.369 83.8264 246.654C84.698 246.148 85.577 245.634 86.4486 245.127C86.8583 245.842 87.4095 246.468 88.0204 246.878Z" fill="#50E6FF"/>
<path d="M63.3335 223.465L65.9557 221.938C68.0489 220.723 70.9393 220.895 74.135 222.735L71.5128 224.262C68.3171 222.422 65.4268 222.25 63.3335 223.465Z" fill="#8AF4FF"/>
<path d="M88.2212 247.005C88.9215 247.407 89.5621 247.452 90.0165 247.184L87.3944 248.711C86.9325 248.979 86.2993 248.942 85.5991 248.532C86.3813 248.07 87.4316 247.459 88.2212 247.005Z" fill="#50E6FF"/>
<path d="M85.7188 242.893C85.7634 243.623 86.0316 244.412 86.4413 245.127C85.5698 245.634 84.6908 246.148 83.8192 246.655C83.4095 245.939 83.1413 245.15 83.0966 244.42C83.037 243.496 83.3275 242.848 83.8266 242.565L86.4488 241.038C85.9497 241.328 85.6592 241.969 85.7188 242.893Z" fill="#50E6FF"/>
<path d="M83.8186 242.565L86.4408 241.038C86.9026 240.769 87.5358 240.807 88.236 241.216L85.6139 242.743C84.9137 242.334 84.2805 242.296 83.8186 242.565Z" fill="#0078D4"/>
<path d="M85.6216 242.736C85.6886 242.773 85.7557 242.818 85.8227 242.863C87.0519 243.682 88.0352 245.388 88.1246 246.848C88.2363 248.621 87.0593 249.373 85.5993 248.531C85.5322 248.494 85.4652 248.449 85.3981 248.405C84.1764 247.593 83.1857 245.879 83.0963 244.419C82.9846 242.646 84.1541 241.894 85.6216 242.736Z" fill="#0078D4"/>
<path d="M90.0172 247.183L87.395 248.71C87.8941 248.42 88.1772 247.779 88.1251 246.855C88.0357 245.395 87.0524 243.689 85.8232 242.87C85.7562 242.825 85.6892 242.781 85.6221 242.743L88.2443 241.216C88.3113 241.254 88.3783 241.298 88.4454 241.343C89.6745 242.162 90.6578 243.868 90.7472 245.328C90.7994 246.245 90.5088 246.893 90.0172 247.183Z" fill="#0078D4"/>
<path d="M71.5125 224.261L74.1347 222.734L87.0294 230.184L84.4072 231.703L71.5125 224.261Z" fill="#8AF4FF"/>
<path d="M95.1342 257.426L92.512 258.953C94.5755 257.754 95.8568 255.199 95.8717 251.571C95.894 244.271 90.7689 235.376 84.4072 231.711L87.0294 230.184C93.3836 233.857 98.5087 242.744 98.4938 250.044C98.4789 253.672 97.1976 256.227 95.1342 257.426Z" fill="#8AF4FF"/>
<path d="M84.4075 231.703C90.7617 235.376 95.8868 244.263 95.8719 251.563C95.8496 258.863 90.6798 261.813 84.333 258.148L71.4383 250.706C66.2759 247.727 61.9181 241.291 60.4804 235.063L57.0388 229.096L60.5474 227.092C62.0522 222.652 66.4025 221.312 71.5128 224.262L84.4075 231.703ZM77.9042 244.092C79.3643 244.933 80.5413 244.188 80.4295 242.408C80.3402 240.948 79.3568 239.242 78.1277 238.423C78.0607 238.378 77.9936 238.333 77.9266 238.296C76.4665 237.454 75.2895 238.199 75.4013 239.98C75.4907 241.44 76.4814 243.153 77.7031 243.965C77.7701 244.01 77.8372 244.054 77.9042 244.092ZM70.2166 239.652C71.6766 240.494 72.8536 239.749 72.7419 237.976C72.6525 236.516 71.6692 234.81 70.4401 233.99C70.373 233.946 70.306 233.901 70.2389 233.864C68.7789 233.022 67.6019 233.767 67.7136 235.547C67.803 237.007 68.7938 238.721 70.0154 239.533C70.0825 239.57 70.1495 239.615 70.2166 239.652ZM85.5919 248.531C87.052 249.373 88.2289 248.628 88.1172 246.848C88.0278 245.388 87.0445 243.682 85.8154 242.862C85.7483 242.818 85.6813 242.773 85.6142 242.736C84.1542 241.894 82.9772 242.639 83.0889 244.419C83.1783 245.879 84.1691 247.593 85.3908 248.405C85.4578 248.449 85.5249 248.487 85.5919 248.531Z" fill="#50E6FF"/>
</g>
<defs>
<filter id="filter0_f" x="309.761" y="62.3447" width="240.145" height="147.07" filterUnits="userSpaceOnUse" color-interpolation-filters="sRGB">
<feFlood flood-opacity="0" result="BackgroundImageFix"/>
<feBlend mode="normal" in="SourceGraphic" in2="BackgroundImageFix" result="shape"/>
<feGaussianBlur stdDeviation="5" result="effect1_foregroundBlur"/>
</filter>
<filter id="filter1_f" x="339.995" y="255.851" width="83.897" height="51.189" filterUnits="userSpaceOnUse" color-interpolation-filters="sRGB">
<feFlood flood-opacity="0" result="BackgroundImageFix"/>
<feBlend mode="normal" in="SourceGraphic" in2="BackgroundImageFix" result="shape"/>
<feGaussianBlur stdDeviation="2.5" result="effect1_foregroundBlur"/>
</filter>
<filter id="filter2_f" x="275.419" y="215.356" width="69.2909" height="46.9671" filterUnits="userSpaceOnUse" color-interpolation-filters="sRGB">
<feFlood flood-opacity="0" result="BackgroundImageFix"/>
<feBlend mode="normal" in="SourceGraphic" in2="BackgroundImageFix" result="shape"/>
<feGaussianBlur stdDeviation="4.12492" result="effect1_foregroundBlur"/>
</filter>
<filter id="filter3_f" x="136.466" y="323.055" width="69.2899" height="46.9671" filterUnits="userSpaceOnUse" color-interpolation-filters="sRGB">
<feFlood flood-opacity="0" result="BackgroundImageFix"/>
<feBlend mode="normal" in="SourceGraphic" in2="BackgroundImageFix" result="shape"/>
<feGaussianBlur stdDeviation="4.12492" result="effect1_foregroundBlur"/>
</filter>
<filter id="filter4_f" x="181.427" y="164.377" width="72.389" height="46.343" filterUnits="userSpaceOnUse" color-interpolation-filters="sRGB">
<feFlood flood-opacity="0" result="BackgroundImageFix"/>
<feBlend mode="normal" in="SourceGraphic" in2="BackgroundImageFix" result="shape"/>
<feGaussianBlur stdDeviation="2.5" result="effect1_foregroundBlur"/>
</filter>
<filter id="filter5_f" x="253.988" y="315.74" width="72.389" height="46.343" filterUnits="userSpaceOnUse" color-interpolation-filters="sRGB">
<feFlood flood-opacity="0" result="BackgroundImageFix"/>
<feBlend mode="normal" in="SourceGraphic" in2="BackgroundImageFix" result="shape"/>
<feGaussianBlur stdDeviation="2.5" result="effect1_foregroundBlur"/>
</filter>
<filter id="filter6_f" x="12.7727" y="339.194" width="72.3886" height="46.342" filterUnits="userSpaceOnUse" color-interpolation-filters="sRGB">
<feFlood flood-opacity="0" result="BackgroundImageFix"/>
<feBlend mode="normal" in="SourceGraphic" in2="BackgroundImageFix" result="shape"/>
<feGaussianBlur stdDeviation="2.5" result="effect1_foregroundBlur"/>
</filter>
<filter id="filter7_f" x="148.942" y="235.363" width="83.5467" height="53.8377" filterUnits="userSpaceOnUse" color-interpolation-filters="sRGB">
<feFlood flood-opacity="0" result="BackgroundImageFix"/>
<feBlend mode="normal" in="SourceGraphic" in2="BackgroundImageFix" result="shape"/>
<feGaussianBlur stdDeviation="4.12492" result="effect1_foregroundBlur"/>
</filter>
<filter id="filter8_f" x="22.5864" y="239.421" width="90.3942" height="55.2681" filterUnits="userSpaceOnUse" color-interpolation-filters="sRGB">
<feFlood flood-opacity="0" result="BackgroundImageFix"/>
<feBlend mode="normal" in="SourceGraphic" in2="BackgroundImageFix" result="shape"/>
<feGaussianBlur stdDeviation="7" result="effect1_foregroundBlur"/>
</filter>
<linearGradient id="paint0_linear" x1="401.491" y1="186.969" x2="394.858" y2="291.786" gradientUnits="userSpaceOnUse">
<stop stop-color="#50E6FF"/>
<stop offset="0.7998" stop-color="#0078D4"/>
</linearGradient>
<linearGradient id="paint1_linear" x1="363.825" y1="218.589" x2="361.786" y2="304.716" gradientUnits="userSpaceOnUse">
<stop stop-color="#50E6FF"/>
<stop offset="0.7998" stop-color="#0078D4"/>
</linearGradient>
<linearGradient id="paint2_linear" x1="400.239" y1="186.89" x2="393.606" y2="291.707" gradientUnits="userSpaceOnUse">
<stop stop-color="#50E6FF"/>
<stop offset="0.7998" stop-color="#0078D4"/>
</linearGradient>
<linearGradient id="paint3_linear" x1="363.352" y1="218.579" x2="361.315" y2="304.706" gradientUnits="userSpaceOnUse">
<stop stop-color="#50E6FF"/>
<stop offset="0.7998" stop-color="#0078D4"/>
</linearGradient>
<linearGradient id="paint4_linear" x1="398.983" y1="186.812" x2="392.348" y2="291.628" gradientUnits="userSpaceOnUse">
<stop stop-color="#50E6FF"/>
<stop offset="0.7998" stop-color="#0078D4"/>
</linearGradient>
<linearGradient id="paint5_linear" x1="362.884" y1="218.567" x2="360.845" y2="304.693" gradientUnits="userSpaceOnUse">
<stop stop-color="#50E6FF"/>
<stop offset="0.7998" stop-color="#0078D4"/>
</linearGradient>
<linearGradient id="paint6_linear" x1="397.743" y1="186.733" x2="391.109" y2="291.55" gradientUnits="userSpaceOnUse">
<stop stop-color="#50E6FF"/>
<stop offset="0.7998" stop-color="#0078D4"/>
</linearGradient>
<linearGradient id="paint7_linear" x1="362.418" y1="218.555" x2="360.38" y2="304.684" gradientUnits="userSpaceOnUse">
<stop stop-color="#50E6FF"/>
<stop offset="0.7998" stop-color="#0078D4"/>
</linearGradient>
<linearGradient id="paint8_linear" x1="327.815" y1="244.257" x2="321.09" y2="216.605" gradientUnits="userSpaceOnUse">
<stop stop-color="#636363"/>
<stop offset="1" stop-color="#636363" stop-opacity="0"/>
</linearGradient>
<linearGradient id="paint9_linear" x1="304.119" y1="209.829" x2="304.119" y2="269.509" gradientUnits="userSpaceOnUse">
<stop stop-color="#4DC2EB"/>
<stop offset="0.585" stop-color="#0078D4"/>
</linearGradient>
<linearGradient id="paint10_linear" x1="188.861" y1="351.957" x2="182.137" y2="324.305" gradientUnits="userSpaceOnUse">
<stop stop-color="#636363"/>
<stop offset="1" stop-color="#636363" stop-opacity="0"/>
</linearGradient>
<linearGradient id="paint11_linear" x1="165.165" y1="317.528" x2="165.165" y2="377.208" gradientUnits="userSpaceOnUse">
<stop stop-color="#4DC2EB"/>
<stop offset="0.585" stop-color="#0078D4"/>
</linearGradient>
<linearGradient id="paint12_linear" x1="179.004" y1="274.857" x2="214.091" y2="252.936" gradientUnits="userSpaceOnUse">
<stop stop-color="#636363"/>
<stop offset="1" stop-color="#636363" stop-opacity="0"/>
</linearGradient>
<clipPath id="clip0">
<rect width="550" height="388" fill="white"/>
</clipPath>
</defs>
</svg>
