<svg width="64" height="64" viewBox="0 0 64 64" fill="none" xmlns="http://www.w3.org/2000/svg">
<path d="M42.9538 23.1323L36.0121 27.1441C39.6714 29.3893 42.6044 34.5513 42.6044 38.8115C42.6044 40.9831 41.8413 42.5105 40.6092 43.219L47.551 39.2072C48.783 38.4987 49.5461 36.9713 49.5461 34.7997C49.5461 30.5395 46.6131 25.3683 42.9538 23.1323Z" fill="#21A4F4"/>
<path d="M36.9683 13.2129C36.4534 12.9185 35.9569 12.7069 35.4788 12.5688L28.5371 16.5807C29.0152 16.7187 29.5117 16.9303 30.0266 17.2248C33.1986 19.0558 35.8006 23.4081 36.0121 27.1439L42.9539 23.1321C42.7424 19.3963 40.1404 15.0532 36.9683 13.2129Z" fill="#21A4F4"/>
<path d="M8.90717 27.1992L35.8007 42.7404C37.6763 43.8262 39.3773 43.9274 40.6093 43.2189C41.8414 42.5104 42.6045 40.9829 42.6045 38.8114C42.6045 34.5511 39.6715 29.3891 36.0121 27.144C35.8007 23.4174 33.1987 19.0651 30.0266 17.2249C29.5117 16.9304 29.0152 16.7188 28.5371 16.5808C26.5236 11.9893 23.1216 7.7658 19.2692 5.53906C16.1799 3.75398 13.3848 3.58836 11.3621 4.75694C9.52319 5.8243 8.31873 7.99584 8.11646 11.0691C6.55341 10.379 5.15587 10.3882 4.09852 10.9955C2.86648 11.704 2.10334 13.2314 2.10334 15.403C2.10334 19.7461 5.14668 25.0277 8.90717 27.1992Z" fill="#50E6FF"/>
<path d="M12.5039 16.5892C12.5039 17.0209 12.4277 17.3002 12.3008 17.4526C12.1738 17.605 11.9706 17.605 11.7167 17.4526C11.4881 17.3256 11.3104 17.0971 11.1834 16.8177C11.0564 16.513 10.9802 16.1575 10.9802 15.7511C10.9802 15.294 11.0564 15.0147 11.1834 14.8369C11.3104 14.6846 11.5135 14.6846 11.7675 14.8369C12.2754 15.1417 12.5039 15.7004 12.5039 16.5892ZM12.1484 16.386C12.1484 16.0559 12.123 15.7765 12.0468 15.5734C11.996 15.3956 11.8944 15.2433 11.7675 15.1671C11.4881 15.0147 11.3358 15.2686 11.3358 15.9543C11.3358 16.259 11.3611 16.513 11.4373 16.7162C11.5135 16.9193 11.6151 17.0717 11.7421 17.1479C11.869 17.224 11.9706 17.1987 12.0468 17.0717C12.123 16.9447 12.1484 16.7162 12.1484 16.386Z" fill="#0078D4"/>
<path d="M13.9765 16.1065V18.7221L13.6209 18.519V16.4112C13.494 16.4366 13.3416 16.4112 13.1638 16.3604V16.0049C13.3162 16.0303 13.4178 16.0557 13.5193 16.0557C13.6209 16.0557 13.7225 16.0303 13.8241 16.0049L13.9765 16.1065Z" fill="#0078D4"/>
<path d="M16.3638 18.7987C16.3638 19.2304 16.2876 19.5097 16.1606 19.6621C16.0336 19.8144 15.8305 19.8144 15.5765 19.6621C15.348 19.5351 15.1448 19.3066 15.0179 19.0018C14.8909 18.6971 14.8147 18.3669 14.8147 17.9352C14.8147 17.4781 14.8909 17.1988 15.0179 17.021C15.1448 16.8686 15.348 16.8686 15.6019 17.021C16.1098 17.3511 16.3638 17.9352 16.3638 18.7987ZM15.9829 18.6209C15.9829 18.2908 15.9575 18.0114 15.8813 17.8083C15.8305 17.6051 15.7289 17.4781 15.5765 17.4019C15.2972 17.2496 15.1702 17.5035 15.1702 18.1892C15.1702 18.4939 15.1956 18.7479 15.2718 18.951C15.348 19.1542 15.4496 19.2812 15.5765 19.3573C15.7035 19.4335 15.8051 19.4081 15.8813 19.2812C15.9575 19.1542 15.9829 18.9256 15.9829 18.6209Z" fill="#0078D4"/>
<path d="M17.8366 18.3159V20.9316L17.481 20.7284V18.6207C17.3541 18.6461 17.2017 18.6461 17.0239 18.5953V18.2397C17.1763 18.2651 17.2779 18.2905 17.3795 18.2905C17.481 18.2905 17.5826 18.2651 17.6842 18.2397L17.8366 18.3159Z" fill="#0078D4"/>
<path d="M20.1982 21.0076C20.1982 21.4394 20.1221 21.7187 19.9951 21.8711C19.8681 22.0234 19.665 22.0234 19.411 21.8711C19.1825 21.7441 18.9793 21.5155 18.8523 21.2108C18.7254 20.9061 18.6492 20.5759 18.6492 20.1442C18.6492 19.6871 18.7254 19.4078 18.8523 19.23C18.9793 19.0776 19.1825 19.0776 19.4364 19.23C19.9697 19.5601 20.1982 20.1442 20.1982 21.0076ZM19.8427 20.8299C19.8427 20.4997 19.8173 20.2204 19.7411 20.0172C19.6904 19.8141 19.5888 19.6871 19.4364 19.6109C19.1571 19.4586 19.0301 19.7125 19.0301 20.3982C19.0301 20.7029 19.0555 20.9568 19.1317 21.16C19.2079 21.3632 19.3094 21.4901 19.4364 21.5663C19.5634 21.6425 19.665 21.6171 19.7411 21.4901C19.8173 21.3632 19.8427 21.16 19.8427 20.8299Z" fill="#0078D4"/>
<path d="M21.6713 20.5508V23.1665L21.3157 22.9633V20.8555C21.1888 20.8809 21.0364 20.8809 20.8586 20.8301V20.4746C21.011 20.5 21.1126 20.5254 21.2142 20.5254C21.3157 20.5254 21.4173 20.5 21.5189 20.4746L21.6713 20.5508Z" fill="#0078D4"/>
<path d="M12.5037 20.9569C12.5037 21.3886 12.4275 21.6679 12.3005 21.8203C12.1735 21.9726 11.9704 21.9726 11.7164 21.8203C11.4879 21.6933 11.2847 21.4647 11.1577 21.16C11.0562 20.9061 10.98 20.5505 10.98 20.1442C10.98 19.6871 11.0562 19.4078 11.1831 19.23C11.3101 19.0776 11.5133 19.0776 11.7672 19.23C12.2751 19.5093 12.5037 20.0934 12.5037 20.9569ZM12.1481 20.7791C12.1481 20.449 12.1227 20.1696 12.0466 19.9665C11.9958 19.7633 11.8942 19.6363 11.7672 19.5601C11.4879 19.4078 11.3609 19.6617 11.3609 20.3474C11.3609 20.6521 11.3863 20.9061 11.4625 21.1092C11.5387 21.3124 11.6402 21.4394 11.7672 21.5155C11.8942 21.5917 11.9958 21.5663 12.072 21.4394C12.1481 21.3124 12.1481 21.0838 12.1481 20.7791Z" fill="#0078D4"/>
<path d="M13.9765 20.5V23.1157L13.6209 22.9125V20.8048C13.494 20.8301 13.3416 20.8301 13.1638 20.7794V20.4238C13.3162 20.4492 13.4178 20.4746 13.5193 20.4746C13.6209 20.4746 13.7225 20.4492 13.8241 20.4238L13.9765 20.5Z" fill="#0078D4"/>
<path d="M16.3638 23.1917C16.3638 23.6234 16.2876 23.9028 16.1606 24.0551C16.0336 24.2075 15.8305 24.2075 15.5765 24.0551C15.348 23.9282 15.1448 23.6996 15.0179 23.3949C14.8909 23.0901 14.8147 22.76 14.8147 22.3283C14.8147 21.8712 14.8909 21.5918 15.0179 21.4141C15.1448 21.2617 15.348 21.2617 15.6019 21.4141C16.1098 21.7442 16.3638 22.3029 16.3638 23.1917ZM15.9829 22.9886C15.9829 22.6584 15.9575 22.3791 15.8813 22.1759C15.8305 21.9728 15.7289 21.8458 15.5765 21.7696C15.2972 21.6172 15.1702 21.8712 15.1702 22.5569C15.1702 22.8616 15.1956 23.1155 15.2718 23.3187C15.348 23.5219 15.4496 23.6488 15.5765 23.725C15.7035 23.8012 15.8051 23.7758 15.8813 23.6488C15.9575 23.5472 15.9829 23.3187 15.9829 22.9886Z" fill="#0078D4"/>
<path d="M17.8366 22.7095V25.3252L17.481 25.122V23.0142C17.3541 23.0396 17.2017 23.0396 17.0239 22.9888V22.6333C17.1763 22.6587 17.2779 22.6841 17.3795 22.6841C17.481 22.6841 17.5826 22.6587 17.6842 22.6333L17.8366 22.7095Z" fill="#0078D4"/>
<path d="M20.1982 25.4012C20.1982 25.8329 20.1221 26.1123 19.9951 26.2646C19.8681 26.417 19.665 26.417 19.411 26.2646C19.1825 26.1376 18.9793 25.9091 18.8523 25.6044C18.7254 25.2996 18.6492 24.9695 18.6492 24.5378C18.6492 24.0807 18.7254 23.8013 18.8523 23.6236C18.9793 23.4712 19.1825 23.4712 19.4364 23.6236C19.9697 23.9537 20.1982 24.5378 20.1982 25.4012ZM19.8427 25.2234C19.8427 24.8933 19.8173 24.614 19.7411 24.4108C19.6904 24.2076 19.5888 24.0807 19.4364 24.0045C19.1571 23.8521 19.0301 24.1061 19.0301 24.7917C19.0301 25.0965 19.0555 25.3504 19.1317 25.5536C19.2079 25.7567 19.3094 25.8837 19.4364 25.9599C19.5634 26.0361 19.665 26.0107 19.7411 25.8837C19.8173 25.7567 19.8427 25.5282 19.8427 25.2234Z" fill="#0078D4"/>
<path d="M21.6713 24.9185V27.5341L21.3157 27.331V25.2232C21.1888 25.2486 21.0364 25.2486 20.8586 25.1978V24.8423C21.011 24.8677 21.1126 24.8931 21.2142 24.8931C21.3157 24.8931 21.4173 24.8677 21.5189 24.8423L21.6713 24.9185Z" fill="#0078D4"/>
<path d="M12.5037 25.3504C12.5037 25.7821 12.4275 26.0615 12.3005 26.2138C12.1735 26.3662 11.9704 26.3662 11.7164 26.2138C11.4879 26.0869 11.2847 25.8583 11.1577 25.5536C11.0562 25.2996 10.98 24.9441 10.98 24.5124C10.98 24.0553 11.0562 23.7759 11.1831 23.5982C11.3101 23.4458 11.5133 23.4458 11.7672 23.5982C12.2751 23.9029 12.5037 24.487 12.5037 25.3504ZM12.1481 25.1726C12.1481 24.8425 12.1227 24.5632 12.0466 24.36C11.9958 24.1569 11.8942 24.0299 11.7418 23.9537C11.4625 23.8013 11.3355 24.0553 11.3355 24.7409C11.3355 25.0457 11.3609 25.2996 11.4371 25.5028C11.5133 25.6805 11.6149 25.8329 11.7418 25.9091C11.8688 25.9853 11.9704 25.9599 12.0466 25.8329C12.1227 25.7059 12.1481 25.4774 12.1481 25.1726Z" fill="#0078D4"/>
<path d="M13.9765 24.8677V27.4834L13.6209 27.2802V25.1724C13.494 25.1978 13.3416 25.1978 13.1638 25.147V24.7915C13.3162 24.8169 13.4178 24.8423 13.5193 24.8423C13.6209 24.8423 13.7225 24.8169 13.8241 24.7915L13.9765 24.8677Z" fill="#0078D4"/>
<path d="M16.3638 27.5599C16.3638 27.9916 16.2876 28.2709 16.1606 28.4233C16.0336 28.5757 15.8305 28.5757 15.5765 28.4233C15.348 28.2963 15.1448 28.0678 15.0179 27.763C14.8909 27.4583 14.8147 27.1282 14.8147 26.6965C14.8147 26.2394 14.8909 25.96 15.0179 25.7822C15.1448 25.6299 15.348 25.6299 15.6019 25.7822C16.1098 26.1124 16.3638 26.6965 16.3638 27.5599ZM15.9829 27.3821C15.9829 27.052 15.9575 26.7726 15.8813 26.5695C15.8305 26.3663 15.7289 26.2394 15.5765 26.1632C15.2972 26.0108 15.1702 26.2647 15.1702 26.9504C15.1702 27.2551 15.1956 27.5091 15.2718 27.7123C15.348 27.9154 15.4496 28.0424 15.5765 28.1186C15.7035 28.1948 15.8051 28.1694 15.8813 28.0424C15.9575 27.9154 15.9829 27.6869 15.9829 27.3821Z" fill="#0078D4"/>
<path d="M17.8366 27.1026V29.7182L17.481 29.5151V27.4073C17.3541 27.4327 17.2017 27.4327 17.0239 27.3819V27.0264C17.1763 27.0518 17.2779 27.0772 17.3795 27.0772C17.481 27.0772 17.5826 27.0518 17.6842 27.0264L17.8366 27.1026Z" fill="#0078D4"/>
<path d="M20.1982 29.7943C20.1982 30.226 20.1221 30.5053 19.9951 30.6577C19.8681 30.8101 19.665 30.8101 19.411 30.6577C19.1825 30.5307 18.9793 30.3022 18.8523 29.9974C18.7254 29.6927 18.6492 29.3625 18.6492 28.9308C18.6492 28.4737 18.7254 28.1944 18.8523 28.0166C18.9793 27.8643 19.1825 27.8643 19.4364 28.0166C19.9697 28.3468 20.1982 28.9054 20.1982 29.7943ZM19.8427 29.5911C19.8427 29.261 19.8173 28.9816 19.7411 28.7785C19.6904 28.5753 19.5888 28.4483 19.4364 28.3721C19.1571 28.2198 19.0301 28.4737 19.0301 29.1594C19.0301 29.4641 19.0555 29.7181 19.1317 29.9212C19.2079 30.1244 19.3094 30.2514 19.4364 30.3276C19.5634 30.4037 19.665 30.3783 19.7411 30.2514C19.8173 30.1244 19.8427 29.9212 19.8427 29.5911Z" fill="#0078D4"/>
<path d="M21.6713 29.312V31.9277L21.3157 31.7245V29.6168C21.1888 29.6422 21.0364 29.6422 20.8586 29.5914V29.2358C21.011 29.2612 21.1126 29.2866 21.2142 29.2866C21.3157 29.2866 21.4173 29.2612 21.5189 29.2358L21.6713 29.312Z" fill="#0078D4"/>
<path d="M11.818 27.9912V30.6069L11.4625 30.4037V28.296C11.3355 28.3214 11.1831 28.3214 11.0054 28.2706V27.915C11.1577 27.9404 11.2593 27.9658 11.3609 27.9658C11.4625 27.9658 11.5641 27.9404 11.6656 27.915L11.818 27.9912Z" fill="#0078D4"/>
<path d="M13.6972 29.0835V31.6992L13.3162 31.496V29.3882C13.1893 29.4136 13.0369 29.4136 12.8591 29.3629V29.0073C13.0115 29.0327 13.1131 29.0581 13.2147 29.0581C13.3162 29.0581 13.4178 29.0327 13.5194 29.0073L13.6972 29.0835Z" fill="#0078D4"/>
<path d="M15.5509 30.1753V32.791L15.1954 32.5878V30.48C15.0684 30.5054 14.916 30.5054 14.7383 30.4547V30.0991C14.8907 30.1245 14.9922 30.1499 15.0938 30.1499C15.1954 30.1499 15.297 30.1245 15.3985 30.0991L15.5509 30.1753Z" fill="#0078D4"/>
<path d="M17.4303 31.2422V33.8579L17.0748 33.6547V31.5469C16.9478 31.5723 16.7954 31.5723 16.6177 31.5215V31.166C16.77 31.1914 16.8716 31.2168 16.9732 31.2168C17.0748 31.2168 17.1764 31.1914 17.2779 31.166L17.4303 31.2422Z" fill="#0078D4"/>
<path d="M19.9951 34.0609C19.9951 34.4926 19.9189 34.7719 19.792 34.9243C19.665 35.0767 19.4618 35.0767 19.2079 34.9243C18.9793 34.7973 18.7762 34.5688 18.6492 34.264C18.5222 33.9593 18.446 33.6292 18.446 33.1974C18.446 32.7403 18.5222 32.461 18.6492 32.2832C18.7762 32.1309 18.9793 32.1309 19.2333 32.2832C19.7666 32.6134 19.9951 33.172 19.9951 34.0609ZM19.6396 33.8577C19.6396 33.5276 19.6142 33.2482 19.538 33.0451C19.4872 32.8419 19.3857 32.7149 19.2333 32.6388C18.9539 32.4864 18.827 32.7403 18.827 33.426C18.827 33.7307 18.8524 33.9847 18.9285 34.1878C19.0047 34.391 19.1063 34.518 19.2333 34.5942C19.3603 34.6703 19.4618 34.6449 19.538 34.518C19.6142 34.4164 19.6396 34.1878 19.6396 33.8577Z" fill="#0078D4"/>
<path d="M21.6713 33.7051V36.3208L21.3157 36.1176V34.0098C21.1888 34.0352 21.0364 34.0352 20.8586 33.9844V33.6289C21.011 33.6543 21.1126 33.6797 21.2142 33.6797C21.3157 33.6797 21.4173 33.6543 21.5189 33.6289L21.6713 33.7051Z" fill="#0078D4"/>
<path d="M12.5037 34.1116C12.5037 34.5434 12.4275 34.8227 12.3005 34.9751C12.1735 35.1274 11.9704 35.1274 11.7164 34.9751C11.4879 34.8481 11.2847 34.6195 11.1577 34.3148C11.0562 34.0608 10.98 33.7053 10.98 33.299C10.98 32.8419 11.0562 32.5625 11.1831 32.3848C11.3101 32.2324 11.5133 32.2324 11.7672 32.3848C12.2751 32.6641 12.5037 33.2482 12.5037 34.1116ZM12.1481 33.9339C12.1481 33.6037 12.1227 33.3244 12.0466 33.1212C11.9958 32.9181 11.8942 32.7911 11.7418 32.7149C11.4625 32.5625 11.3355 32.8165 11.3355 33.5022C11.3355 33.8069 11.3609 34.0608 11.4371 34.264C11.5133 34.4672 11.6149 34.5941 11.7418 34.6703C11.8688 34.7465 11.9704 34.7211 12.0466 34.5941C12.1227 34.4672 12.1481 34.2386 12.1481 33.9339Z" fill="#0078D4"/>
<path d="M14.4083 33.8828V36.4985L14.0528 36.2953V34.1876C13.9258 34.213 13.7735 34.213 13.5957 34.1622V33.7812C13.7481 33.8066 13.8497 33.832 13.9512 33.832C14.0528 33.832 14.1544 33.8066 14.256 33.7812L14.4083 33.8828Z" fill="#0078D4"/>
<path d="M17.2017 36.8035C17.2017 37.2353 17.1255 37.5146 16.9985 37.667C16.8715 37.8193 16.6684 37.8193 16.4144 37.667C16.1859 37.54 15.9827 37.3114 15.8557 37.0067C15.7288 36.702 15.6526 36.3718 15.6526 35.9401C15.6526 35.483 15.7288 35.2037 15.8557 35.0259C15.9827 34.8735 16.1859 34.8735 16.4398 35.0259C16.9477 35.356 17.2017 35.9401 17.2017 36.8035ZM16.8208 36.6258C16.8208 36.2956 16.7954 36.0163 16.7192 35.8131C16.6684 35.61 16.5668 35.483 16.4144 35.4068C16.1351 35.2545 16.0081 35.5084 16.0081 36.1941C16.0081 36.4988 16.0335 36.7527 16.1097 36.9559C16.1859 37.1591 16.2875 37.286 16.4144 37.3622C16.5414 37.4384 16.643 37.413 16.7192 37.286C16.7954 37.1591 16.8208 36.9559 16.8208 36.6258Z" fill="#0078D4"/>
<path d="M19.792 38.3016C19.792 38.7333 19.7158 39.0126 19.5888 39.165C19.4619 39.3174 19.2587 39.3174 19.0048 39.165C18.7762 39.038 18.5731 38.8095 18.4461 38.5047C18.3191 38.2 18.2429 37.8699 18.2429 37.4382C18.2429 36.9811 18.3191 36.7017 18.4461 36.5239C18.5731 36.3716 18.7762 36.3716 19.0302 36.5239C19.5381 36.8541 19.792 37.4382 19.792 38.3016ZM19.4111 38.1238C19.4111 37.7937 19.3857 37.5143 19.3095 37.3112C19.2587 37.108 19.1571 36.9811 19.0048 36.9049C18.7254 36.7525 18.5984 37.0064 18.5984 37.6921C18.5984 37.9968 18.6238 38.2508 18.7 38.454C18.7762 38.6571 18.8778 38.7841 19.0048 38.8603C19.1317 38.9365 19.2333 38.9111 19.3095 38.7841C19.3857 38.6571 19.4111 38.454 19.4111 38.1238Z" fill="#0078D4"/>
<path d="M12.5037 38.5052C12.5037 38.9369 12.4275 39.2163 12.3005 39.3686C12.1735 39.521 11.9704 39.521 11.7164 39.3686C11.4879 39.2417 11.2847 39.0131 11.1577 38.7084C11.0562 38.429 10.98 38.0735 10.98 37.6672C10.98 37.2101 11.0562 36.9307 11.1831 36.7529C11.3101 36.6006 11.5133 36.6006 11.7672 36.7529C12.2751 37.0323 12.5037 37.6164 12.5037 38.5052ZM12.1481 38.302C12.1481 37.9719 12.1227 37.6926 12.0466 37.4894C11.9958 37.3116 11.8942 37.1593 11.7672 37.0831C11.4879 36.9307 11.3609 37.1847 11.3609 37.8703C11.3609 38.1751 11.3863 38.429 11.4625 38.6322C11.5387 38.8353 11.6402 38.9623 11.7672 39.0385C11.8942 39.1147 11.9958 39.0893 12.072 38.9623C12.1227 38.8353 12.1481 38.6322 12.1481 38.302Z" fill="#0078D4"/>
<path d="M13.9765 38.0225V40.6381L13.6209 40.435V38.3272C13.494 38.3526 13.3416 38.3526 13.1638 38.3018V37.9463C13.3162 37.9717 13.4178 37.9971 13.5193 37.9971C13.6209 37.9971 13.7225 37.9717 13.8241 37.9463L13.9765 38.0225Z" fill="#0078D4"/>
<path d="M16.3638 40.7142C16.3638 41.1459 16.2876 41.4252 16.1606 41.5776C16.0336 41.73 15.8305 41.73 15.5765 41.5776C15.348 41.4506 15.1448 41.2221 15.0179 40.9173C14.8909 40.6126 14.8147 40.2825 14.8147 39.8508C14.8147 39.3937 14.8909 39.1143 15.0179 38.9365C15.1448 38.7842 15.348 38.7842 15.6019 38.9365C16.1098 39.2667 16.3638 39.8508 16.3638 40.7142ZM15.9829 40.5364C15.9829 40.2063 15.9575 39.9269 15.8813 39.7238C15.8305 39.5206 15.7289 39.3937 15.5765 39.3175C15.2972 39.1651 15.1702 39.419 15.1702 40.1047C15.1702 40.4094 15.1956 40.6634 15.2718 40.8666C15.348 41.0697 15.4496 41.1967 15.5765 41.2729C15.7035 41.3491 15.8051 41.3237 15.8813 41.1967C15.9575 41.0697 15.9829 40.8412 15.9829 40.5364Z" fill="#0078D4"/>
<path d="M21.6713 42.4663V45.082L21.3157 44.8788V42.7711C21.1888 42.7965 21.0364 42.7965 20.8586 42.7457V42.3901C21.011 42.4155 21.1126 42.4409 21.2142 42.4409C21.3157 42.4409 21.4173 42.4155 21.5189 42.3901L21.6713 42.4663Z" fill="#0078D4"/>
<path d="M12.5037 42.8729C12.5037 43.3046 12.4275 43.5839 12.3005 43.7363C12.1735 43.8887 11.9704 43.8887 11.7164 43.7363C11.4879 43.6093 11.2847 43.3808 11.1577 43.076C11.0308 42.7713 10.9546 42.4412 10.9546 42.0095C10.9546 41.5523 11.0308 41.273 11.1577 41.0952C11.2847 40.9429 11.4879 40.9429 11.7418 41.0952C12.2751 41.4254 12.5037 42.0095 12.5037 42.8729ZM12.1481 42.6951C12.1481 42.365 12.1228 42.0856 12.0466 41.8825C11.9958 41.6793 11.8942 41.5523 11.7418 41.4762C11.4625 41.3238 11.3355 41.5777 11.3355 42.2634C11.3355 42.5681 11.3609 42.8221 11.4371 43.0252C11.5133 43.2284 11.6149 43.3554 11.7418 43.4316C11.8688 43.5078 11.9704 43.4824 12.0466 43.3554C12.1228 43.2284 12.1481 42.9999 12.1481 42.6951Z" fill="#0078D4"/>
<path d="M14.0783 42.4663V45.082L13.7227 44.8788V42.7711C13.5958 42.7965 13.4434 42.7965 13.2656 42.7457V42.3901C13.418 42.4155 13.5196 42.4409 13.6212 42.4409C13.7227 42.4409 13.8243 42.4155 13.9259 42.3901L14.0783 42.4663Z" fill="#0078D4"/>
<path d="M21.8743 48.2821C21.8743 48.7138 21.7981 48.9931 21.6711 49.1455C21.5441 49.2979 21.341 49.2979 21.087 49.1455C20.8585 49.0185 20.6553 48.79 20.5284 48.4852C20.4014 48.1805 20.3252 47.8503 20.3252 47.4186C20.3252 46.9615 20.4014 46.6822 20.5284 46.5044C20.6553 46.352 20.8585 46.352 21.1124 46.5044C21.6203 46.8345 21.8743 47.4186 21.8743 48.2821ZM21.5187 48.1043C21.5187 47.7742 21.4934 47.4948 21.4172 47.2917C21.3664 47.0885 21.2648 46.9615 21.1124 46.8853C20.8331 46.733 20.7061 46.9869 20.7061 47.6726C20.7061 47.9773 20.7315 48.2313 20.8077 48.4344C20.8839 48.6376 20.9855 48.7646 21.1124 48.8407C21.2394 48.9169 21.341 48.8915 21.4172 48.7646C21.468 48.6376 21.5187 48.409 21.5187 48.1043Z" fill="#0078D4"/>
<path d="M24.4651 23.4583C24.4651 23.89 24.3889 24.1694 24.2619 24.3217C24.135 24.4741 23.9318 24.4741 23.6779 24.3217C23.4493 24.1948 23.2715 23.9662 23.1446 23.6869C23.0176 23.3821 22.9414 23.0266 22.9414 22.6203C22.9414 22.1632 23.0176 21.8838 23.1446 21.7061C23.2715 21.5537 23.4747 21.5537 23.7286 21.7061C24.2365 22.0108 24.4651 22.5695 24.4651 23.4583ZM24.1096 23.2552C24.1096 22.925 24.0842 22.6457 24.008 22.4425C23.9572 22.2648 23.8556 22.1124 23.7286 22.0362C23.4493 21.8838 23.2969 22.1378 23.2969 22.8234C23.2969 23.1282 23.3223 23.3821 23.3985 23.5853C23.4747 23.7885 23.5763 23.9408 23.7033 24.017C23.8302 24.0932 23.9318 24.0678 24.008 23.9408C24.0842 23.8138 24.1096 23.5853 24.1096 23.2552Z" fill="#0078D4"/>
<path d="M25.9376 22.9756V25.5913L25.5821 25.3881V23.2803C25.4551 23.3057 25.3028 23.2803 25.125 23.2296V22.874C25.2774 22.8994 25.3789 22.9248 25.4805 22.9248C25.5821 22.9248 25.6837 22.8994 25.7853 22.874L25.9376 22.9756Z" fill="#0078D4"/>
<path d="M28.325 25.6678C28.325 26.0995 28.2488 26.3789 28.1218 26.5312C27.9948 26.6836 27.7917 26.6836 27.5377 26.5312C27.3092 26.4042 27.106 26.1757 26.979 25.871C26.8521 25.5662 26.7759 25.2361 26.7759 24.8044C26.7759 24.3473 26.8521 24.0679 26.979 23.8902C27.106 23.7378 27.3092 23.7378 27.5631 23.8902C28.071 24.2203 28.325 24.8044 28.325 25.6678ZM27.944 25.49C27.944 25.1599 27.9186 24.8806 27.8425 24.6774C27.7917 24.4742 27.6901 24.3473 27.5377 24.2711C27.2584 24.1187 27.1314 24.3727 27.1314 25.0583C27.1314 25.3631 27.1568 25.617 27.233 25.8202C27.3092 26.0233 27.4108 26.1503 27.5377 26.2265C27.6647 26.3027 27.7663 26.2773 27.8425 26.1503C27.9186 26.0233 27.944 25.7948 27.944 25.49Z" fill="#0078D4"/>
<path d="M29.7977 25.1851V27.8007L29.4422 27.5976V25.4898C29.3152 25.5152 29.1629 25.5152 28.9851 25.4644V25.1089C29.1375 25.1343 29.2391 25.1597 29.3406 25.1597C29.4422 25.1597 29.5438 25.1343 29.6454 25.1089L29.7977 25.1851Z" fill="#0078D4"/>
<path d="M32.1594 27.8768C32.1594 28.3085 32.0833 28.5878 31.9563 28.7402C31.8293 28.8926 31.6261 28.8926 31.3722 28.7402C31.1436 28.6132 30.9405 28.3847 30.8135 28.0799C30.6865 27.7752 30.6104 27.4451 30.6104 27.0134C30.6104 26.5562 30.6865 26.2769 30.8135 26.0991C30.9405 25.9468 31.1436 25.9468 31.3976 26.0991C31.9309 26.4293 32.1594 27.0134 32.1594 27.8768ZM31.8039 27.699C31.8039 27.3689 31.7785 27.0895 31.7023 26.8864C31.6515 26.6832 31.55 26.5562 31.3976 26.4801C31.1182 26.3277 30.9913 26.5816 30.9913 27.2673C30.9913 27.572 31.0167 27.826 31.0929 28.0291C31.169 28.2323 31.2706 28.3593 31.3976 28.4355C31.5246 28.5117 31.6261 28.4863 31.7023 28.3593C31.7785 28.2323 31.8039 28.0291 31.8039 27.699Z" fill="#0078D4"/>
<path d="M33.6325 27.4199V30.0356L33.2769 29.8324V27.7247C33.15 27.7501 32.9976 27.7501 32.8198 27.6993V27.3438C32.9722 27.3691 33.0738 27.3945 33.1753 27.3945C33.2769 27.3945 33.3785 27.3691 33.4801 27.3438L33.6325 27.4199Z" fill="#0078D4"/>
<path d="M24.4648 27.826C24.4648 28.2577 24.3887 28.537 24.2617 28.6894C24.1347 28.8418 23.9316 28.8418 23.6776 28.6894C23.4491 28.5624 23.2459 28.3339 23.1189 28.0291C23.0173 27.7752 22.9412 27.4197 22.9412 27.0134C22.9412 26.5562 23.0173 26.2769 23.1443 26.0991C23.2713 25.9468 23.4745 25.9468 23.7284 26.0991C24.2363 26.3785 24.4648 26.9626 24.4648 27.826ZM24.1093 27.6482C24.1093 27.3181 24.0839 27.0387 24.0077 26.8356C23.957 26.6324 23.8554 26.5055 23.7284 26.4293C23.4491 26.2769 23.3221 26.5309 23.3221 27.2165C23.3221 27.5213 23.3475 27.7752 23.4237 27.9784C23.4998 28.1815 23.6014 28.3085 23.7284 28.3847C23.8554 28.4609 23.957 28.4355 24.0331 28.3085C24.1093 28.1815 24.1093 27.953 24.1093 27.6482Z" fill="#0078D4"/>
<path d="M25.9376 27.3692V29.9848L25.5821 29.7817V27.6739C25.4551 27.6993 25.3028 27.6993 25.125 27.6485V27.293C25.2774 27.3184 25.3789 27.3438 25.4805 27.3438C25.5821 27.3438 25.6837 27.3184 25.7853 27.293L25.9376 27.3692Z" fill="#0078D4"/>
<path d="M28.325 30.0609C28.325 30.4926 28.2488 30.7719 28.1218 30.9243C27.9948 31.0767 27.7917 31.0767 27.5377 30.9243C27.3092 30.7973 27.106 30.5688 26.979 30.264C26.8521 29.9593 26.7759 29.6291 26.7759 29.1974C26.7759 28.7403 26.8521 28.461 26.979 28.2832C27.106 28.1309 27.3092 28.1309 27.5631 28.2832C28.071 28.6134 28.325 29.172 28.325 30.0609ZM27.944 29.8577C27.944 29.5276 27.9186 29.2482 27.8425 29.0451C27.7917 28.8419 27.6901 28.7149 27.5377 28.6388C27.2584 28.4864 27.1314 28.7403 27.1314 29.426C27.1314 29.7307 27.1568 29.9847 27.233 30.1878C27.3092 30.391 27.4108 30.518 27.5377 30.5942C27.6647 30.6703 27.7663 30.6449 27.8425 30.518C27.9186 30.4164 27.944 30.1878 27.944 29.8577Z" fill="#0078D4"/>
<path d="M29.7977 29.5786V32.1943L29.4422 31.9911V29.8834C29.3152 29.9088 29.1629 29.9088 28.9851 29.858V29.5024C29.1375 29.5278 29.2391 29.5532 29.3406 29.5532C29.4422 29.5532 29.5438 29.5278 29.6454 29.5024L29.7977 29.5786Z" fill="#0078D4"/>
<path d="M32.1594 32.2703C32.1594 32.702 32.0833 32.9814 31.9563 33.1338C31.8293 33.2861 31.6261 33.2861 31.3722 33.1338C31.1436 33.0068 30.9405 32.7782 30.8135 32.4735C30.6865 32.1688 30.6104 31.8386 30.6104 31.4069C30.6104 30.9498 30.6865 30.6705 30.8135 30.4927C30.9405 30.3403 31.1436 30.3403 31.3976 30.4927C31.9309 30.8228 32.1594 31.4069 32.1594 32.2703ZM31.8039 32.0926C31.8039 31.7624 31.7785 31.4831 31.7023 31.2799C31.6515 31.0768 31.55 30.9498 31.3976 30.8736C31.1182 30.7212 30.9913 30.9752 30.9913 31.6609C30.9913 31.9656 31.0167 32.2195 31.0929 32.4227C31.169 32.6259 31.2706 32.7528 31.3976 32.829C31.5246 32.9052 31.6261 32.8798 31.7023 32.7528C31.7785 32.6259 31.8039 32.3973 31.8039 32.0926Z" fill="#0078D4"/>
<path d="M33.6325 31.7876V34.4033L33.2769 34.2001V32.0923C33.15 32.1177 32.9976 32.1177 32.8198 32.067V31.7114C32.9722 31.7368 33.0738 31.7622 33.1753 31.7622C33.2769 31.7622 33.3785 31.7368 33.4801 31.7114L33.6325 31.7876Z" fill="#0078D4"/>
<path d="M24.4648 32.2196C24.4648 32.6513 24.3887 32.9306 24.2617 33.083C24.1347 33.2353 23.9316 33.2353 23.6776 33.083C23.4491 32.956 23.2459 32.7274 23.1189 32.4227C23.0173 32.1688 22.9412 31.8132 22.9412 31.3815C22.9412 30.9244 23.0173 30.6451 23.1443 30.4673C23.2713 30.3149 23.4745 30.3149 23.7284 30.4673C24.2363 30.772 24.4648 31.3561 24.4648 32.2196ZM24.1093 32.0418C24.1093 31.7117 24.0839 31.4323 24.0077 31.2292C23.957 31.026 23.8554 30.899 23.703 30.8228C23.4237 30.6705 23.2967 30.9244 23.2967 31.6101C23.2967 31.9148 23.3221 32.1688 23.3983 32.3719C23.4745 32.5497 23.576 32.7021 23.703 32.7782C23.83 32.8544 23.9316 32.829 24.0077 32.7021C24.0839 32.5751 24.1093 32.3465 24.1093 32.0418Z" fill="#0078D4"/>
<path d="M25.9376 31.7368V34.3525L25.5821 34.1493V32.0416C25.4551 32.067 25.3028 32.067 25.125 32.0162V31.6606C25.2774 31.686 25.3789 31.7114 25.4805 31.7114C25.5821 31.7114 25.6837 31.686 25.7853 31.6606L25.9376 31.7368Z" fill="#0078D4"/>
<path d="M28.325 34.429C28.325 34.8607 28.2488 35.1401 28.1218 35.2925C27.9948 35.4448 27.7917 35.4448 27.5377 35.2925C27.3092 35.1655 27.106 34.9369 26.979 34.6322C26.8521 34.3274 26.7759 33.9973 26.7759 33.5656C26.7759 33.1085 26.8521 32.8292 26.979 32.6514C27.106 32.499 27.3092 32.499 27.5631 32.6514C28.071 32.9815 28.325 33.5656 28.325 34.429ZM27.944 34.2513C27.944 33.9211 27.9186 33.6418 27.8425 33.4386C27.7917 33.2355 27.6901 33.1085 27.5377 33.0323C27.2584 32.8799 27.1314 33.1339 27.1314 33.8195C27.1314 34.1243 27.1568 34.3782 27.233 34.5814C27.3092 34.7846 27.4108 34.9115 27.5377 34.9877C27.6647 35.0639 27.7663 35.0385 27.8425 34.9115C27.9186 34.7846 27.944 34.556 27.944 34.2513Z" fill="#0078D4"/>
<path d="M29.7977 33.9717V36.5874L29.4422 36.3842V34.2764C29.3152 34.3018 29.1629 34.3018 28.9851 34.251V33.8955C29.1375 33.9209 29.2391 33.9463 29.3406 33.9463C29.4422 33.9463 29.5438 33.9209 29.6454 33.8955L29.7977 33.9717Z" fill="#0078D4"/>
<path d="M32.1594 36.6634C32.1594 37.0951 32.0833 37.3745 31.9563 37.5268C31.8293 37.6792 31.6261 37.6792 31.3722 37.5268C31.1436 37.3999 30.9405 37.1713 30.8135 36.8666C30.6865 36.5618 30.6104 36.2317 30.6104 35.8C30.6104 35.3429 30.6865 35.0635 30.8135 34.8858C30.9405 34.7334 31.1436 34.7334 31.3976 34.8858C31.9309 35.2159 32.1594 35.7746 32.1594 36.6634ZM31.8039 36.4602C31.8039 36.1301 31.7785 35.8508 31.7023 35.6476C31.6515 35.4444 31.55 35.3175 31.3976 35.2413C31.1182 35.0889 30.9913 35.3429 30.9913 36.0285C30.9913 36.3333 31.0167 36.5872 31.0929 36.7904C31.169 36.9935 31.2706 37.1205 31.3976 37.1967C31.5246 37.2729 31.6261 37.2475 31.7023 37.1205C31.7785 36.9935 31.8039 36.7904 31.8039 36.4602Z" fill="#0078D4"/>
<path d="M33.6325 36.1812V38.7968L33.2769 38.5937V36.4859C33.15 36.5113 32.9976 36.5113 32.8198 36.4605V36.105C32.9722 36.1304 33.0738 36.1558 33.1753 36.1558C33.2769 36.1558 33.3785 36.1304 33.4801 36.105L33.6325 36.1812Z" fill="#0078D4"/>
<path d="M25.6583 35.9526V38.5683L25.2774 38.3652V36.2574C25.1504 36.2828 24.9981 36.2828 24.8203 36.232V35.8765C24.9727 35.9019 25.0743 35.9273 25.1758 35.9273C25.2774 35.9273 25.379 35.9019 25.4806 35.8765L25.6583 35.9526Z" fill="#0078D4"/>
<path d="M27.5123 37.0444V39.6601L27.1568 39.457V37.3492C27.0298 37.3746 26.8775 37.3746 26.6997 37.3238V36.9683C26.8521 36.9937 26.9537 37.0191 27.0552 37.0191C27.1568 37.0191 27.2584 36.9937 27.36 36.9683L27.5123 37.0444Z" fill="#0078D4"/>
<path d="M29.3915 38.1113V40.727L29.036 40.5238V38.4161C28.909 38.4415 28.7566 38.4415 28.5789 38.3907V38.0352C28.7312 38.0606 28.8328 38.0859 28.9344 38.0859C29.036 38.0859 29.1375 38.0606 29.2391 38.0352L29.3915 38.1113Z" fill="#0078D4"/>
<path d="M31.9563 40.93C31.9563 41.3617 31.8801 41.6411 31.7532 41.7934C31.6262 41.9458 31.423 41.9458 31.1691 41.7934C30.9405 41.6665 30.7374 41.4379 30.6104 41.1332C30.4834 40.8284 30.4072 40.4983 30.4072 40.0666C30.4072 39.6095 30.4834 39.3301 30.6104 39.1524C30.7374 39 30.9405 39 31.1945 39.1524C31.7278 39.4825 31.9563 40.0412 31.9563 40.93ZM31.6008 40.7268C31.6008 40.3967 31.5754 40.1174 31.4992 39.9142C31.4484 39.711 31.3468 39.5841 31.1945 39.5079C30.9151 39.3555 30.7881 39.6095 30.7881 40.2951C30.7881 40.5999 30.8135 40.8538 30.8897 41.057C30.9659 41.2601 31.0675 41.3871 31.1945 41.4633C31.3214 41.5395 31.423 41.5141 31.4992 41.3871C31.5754 41.2855 31.6008 41.057 31.6008 40.7268Z" fill="#0078D4"/>
<path d="M33.6325 40.5742V43.1899L33.2769 42.9867V40.879C33.15 40.9044 32.9976 40.9044 32.8198 40.8536V40.498C32.9722 40.5234 33.0738 40.5488 33.1753 40.5488C33.2769 40.5488 33.3785 40.5234 33.4801 40.498L33.6325 40.5742Z" fill="#0078D4"/>
<path d="M26.3695 40.752V43.3676L26.014 43.1645V41.0567C25.887 41.0821 25.7346 41.0821 25.5569 41.0313V40.6504C25.7093 40.6758 25.8108 40.7012 25.9124 40.7012C26.014 40.7012 26.1156 40.6758 26.2172 40.6504L26.3695 40.752Z" fill="#0078D4"/>
<path d="M29.1629 43.6727C29.1629 44.1044 29.0867 44.3837 28.9597 44.5361C28.8327 44.6885 28.6296 44.6885 28.3756 44.5361C28.1471 44.4091 27.9439 44.1806 27.8169 43.8758C27.69 43.5711 27.6138 43.241 27.6138 42.8093C27.6138 42.3521 27.69 42.0728 27.8169 41.895C27.9439 41.7427 28.1471 41.7427 28.401 41.895C28.9089 42.2252 29.1629 42.8093 29.1629 43.6727ZM28.7819 43.4949C28.7819 43.1648 28.7565 42.8854 28.6804 42.6823C28.6296 42.4791 28.528 42.3521 28.3756 42.276C28.0963 42.1236 27.9693 42.3775 27.9693 43.0632C27.9693 43.3679 27.9947 43.6219 28.0709 43.825C28.1471 44.0282 28.2486 44.1552 28.3756 44.2314C28.5026 44.3075 28.6042 44.2822 28.6804 44.1552C28.7565 44.0282 28.7819 43.825 28.7819 43.4949Z" fill="#0078D4"/>
<path d="M31.7532 45.1707C31.7532 45.6024 31.677 45.8818 31.55 46.0342C31.4231 46.1865 31.2199 46.1865 30.9659 46.0342C30.7374 45.9072 30.5342 45.6786 30.4073 45.3739C30.2803 45.0691 30.2041 44.739 30.2041 44.3073C30.2041 43.8502 30.2803 43.5709 30.4073 43.3931C30.5342 43.2407 30.7374 43.2407 30.9913 43.3931C31.4992 43.7232 31.7532 44.3073 31.7532 45.1707ZM31.3723 44.993C31.3723 44.6628 31.3469 44.3835 31.2707 44.1803C31.2199 43.9772 31.1183 43.8502 30.9659 43.774C30.6866 43.6216 30.5596 43.8756 30.5596 44.5613C30.5596 44.866 30.585 45.1199 30.6612 45.3231C30.7374 45.5263 30.839 45.6532 30.9659 45.7294C31.0929 45.8056 31.1945 45.7802 31.2707 45.6532C31.3469 45.5263 31.3723 45.3231 31.3723 44.993Z" fill="#0078D4"/>
<path d="M33.6325 44.9424V47.5581L33.2769 47.3549V45.2471C33.15 45.2725 32.9976 45.2725 32.8198 45.2217V44.8662C32.9722 44.8916 33.0738 44.917 33.1753 44.917C33.2769 44.917 33.3785 44.8916 33.4801 44.8662L33.6325 44.9424Z" fill="#0078D4"/>
<path d="M24.4648 45.3738C24.4648 45.8056 24.3887 46.0849 24.2617 46.2373C24.1347 46.3896 23.9316 46.3896 23.6776 46.2373C23.4491 46.1103 23.2459 45.8817 23.1189 45.577C23.0173 45.2977 22.9412 44.9421 22.9412 44.5358C22.9412 44.0787 23.0173 43.7994 23.1443 43.6216C23.2713 43.4692 23.4745 43.4692 23.7284 43.6216C24.2363 43.9009 24.4648 44.485 24.4648 45.3738ZM24.1093 45.1707C24.1093 44.8406 24.0839 44.5612 24.0077 44.3581C23.957 44.1803 23.8554 44.0279 23.7284 43.9517C23.4491 43.7994 23.3221 44.0533 23.3221 44.739C23.3221 45.0437 23.3475 45.2977 23.4237 45.5008C23.4998 45.704 23.6014 45.831 23.7284 45.9071C23.8554 45.9833 23.957 45.9579 24.0331 45.831C24.0839 45.704 24.1093 45.5008 24.1093 45.1707Z" fill="#0078D4"/>
<path d="M25.9376 44.8916V47.5073L25.5821 47.3041V45.1964C25.4551 45.2217 25.3028 45.2217 25.125 45.171V44.8154C25.2774 44.8408 25.3789 44.8662 25.4805 44.8662C25.5821 44.8662 25.6837 44.8408 25.7853 44.8154L25.9376 44.8916Z" fill="#0078D4"/>
<path d="M29.7977 47.1011V49.7168L29.4422 49.5136V47.4058C29.3152 47.4312 29.1629 47.4312 28.9851 47.3804V47.0249C29.1375 47.0503 29.2391 47.0757 29.3406 47.0757C29.4422 47.0757 29.5438 47.0503 29.6454 47.0249L29.7977 47.1011Z" fill="#0078D4"/>
<path d="M32.1594 49.7928C32.1594 50.2245 32.0833 50.5039 31.9563 50.6562C31.8293 50.8086 31.6261 50.8086 31.3722 50.6562C31.1436 50.5292 30.9405 50.3007 30.8135 49.996C30.6865 49.6912 30.6104 49.3611 30.6104 48.9294C30.6104 48.4723 30.6865 48.1929 30.8135 48.0152C30.9405 47.8628 31.1436 47.8628 31.3976 48.0152C31.9309 48.3453 32.1594 48.9294 32.1594 49.7928ZM31.8039 49.615C31.8039 49.2849 31.7785 49.0056 31.7023 48.8024C31.6515 48.5992 31.55 48.4723 31.3976 48.3961C31.1182 48.2437 30.9913 48.4977 30.9913 49.1833C30.9913 49.4881 31.0167 49.742 31.0929 49.9452C31.169 50.1483 31.2706 50.2753 31.3976 50.3515C31.5246 50.4277 31.6261 50.4023 31.7023 50.2753C31.7531 50.1483 31.8039 49.9452 31.8039 49.615Z" fill="#0078D4"/>
<path d="M33.6325 49.3355V51.9511L33.2769 51.748V49.6402C33.15 49.6656 32.9976 49.6656 32.8198 49.6148V49.2593C32.9722 49.2847 33.0738 49.3101 33.1753 49.3101C33.2769 49.3101 33.3785 49.2847 33.4801 49.2593L33.6325 49.3355Z" fill="#0078D4"/>
<path d="M24.4649 49.742C24.4649 50.1737 24.3887 50.4531 24.2617 50.6054C24.1347 50.7578 23.9316 50.7578 23.6776 50.6054C23.4491 50.4785 23.2459 50.2499 23.1189 49.9452C22.992 49.6404 22.9158 49.3103 22.9158 48.8786C22.9158 48.4215 22.992 48.1421 23.1189 47.9644C23.2459 47.812 23.4491 47.812 23.703 47.9644C24.2363 48.2945 24.4649 48.8786 24.4649 49.742ZM24.1093 49.5642C24.1093 49.2341 24.0839 48.9548 24.0078 48.7516C23.957 48.5485 23.8554 48.4215 23.703 48.3453C23.4237 48.1929 23.2967 48.4469 23.2967 49.1325C23.2967 49.4373 23.3221 49.6912 23.3983 49.8944C23.4745 50.0975 23.576 50.2245 23.703 50.3007C23.83 50.3769 23.9316 50.3515 24.0078 50.2245C24.0839 50.0975 24.1093 49.869 24.1093 49.5642Z" fill="#0078D4"/>
<path d="M31.3722 52.4082V55.0239L31.0167 54.8207V52.713C30.8897 52.7383 30.7373 52.7383 30.5596 52.6876V52.332C30.7119 52.3574 30.8135 52.3828 30.9151 52.3828C31.0167 52.3828 31.1183 52.3574 31.2198 52.332L31.3722 52.4082Z" fill="#0078D4"/>
<path d="M33.8355 55.1512C33.8355 55.5829 33.7593 55.8622 33.6323 56.0146C33.5053 56.167 33.3022 56.167 33.0482 56.0146C32.8197 55.8876 32.6165 55.6591 32.4895 55.3544C32.3626 55.0496 32.2864 54.7195 32.2864 54.2878C32.2864 53.8307 32.3626 53.5513 32.4895 53.3736C32.6165 53.2212 32.8197 53.2212 33.0736 53.3736C33.5815 53.7037 33.8355 54.2878 33.8355 55.1512ZM33.4799 54.9734C33.4799 54.6433 33.4545 54.364 33.3784 54.1608C33.3276 53.9576 33.226 53.8307 33.0736 53.7545C32.7943 53.6021 32.6673 53.8561 32.6673 54.5417C32.6673 54.8465 32.6927 55.1004 32.7689 55.3036C32.8451 55.5067 32.9466 55.6337 33.0736 55.7099C33.2006 55.7861 33.3022 55.7607 33.3784 55.6337C33.4291 55.5067 33.4799 55.2782 33.4799 54.9734Z" fill="#0078D4"/>
<path d="M26.2108 1.52734C23.1215 -0.257735 20.3265 -0.423361 18.3037 0.745219L11.362 4.75704C13.3847 3.58846 16.1798 3.75408 19.2691 5.53916C23.1215 7.7659 26.5235 11.9894 28.537 16.5809L35.4788 12.569C33.4652 7.97753 30.0725 3.75408 26.2108 1.52734Z" fill="#21A4F4"/>
<path d="M56.2378 53.6231L42.5093 61.5638C37.412 64.505 32.8507 64.5299 29.7849 62.1869C29.1992 61.7383 28.6633 61.2024 28.1897 60.5793C30.7445 60.9033 33.748 60.2178 36.9634 58.3609L50.6919 50.4202L50.6296 50.3828L56.2378 53.6231Z" fill="#50E6FF"/>
<path d="M28.1898 60.5794C26.6444 58.5604 25.7596 55.6566 25.7596 52.0051V50.8585L30.0218 53.3137L22.943 37.7354L15.8643 45.1506L20.2013 47.6556V48.8022C20.2013 54.6222 22.3199 57.8127 26.0088 60.0061L30.0467 62.4238C29.4361 62.05 28.6634 61.2025 28.1898 60.5794Z" fill="#0062AD"/>
</svg>
