<svg id="Layer_1" data-name="Layer 1" xmlns="http://www.w3.org/2000/svg" viewBox="0 0 878.85 237.81"><defs><style>.cls-1{fill:#9db63b;}.cls-1,.cls-2,.cls-3,.cls-4,.cls-5{fill-rule:evenodd;}.cls-2{fill:#bae4ee;}.cls-3{fill:#002e36;}.cls-4{fill:#00192a;}.cls-11,.cls-5{fill:#fff;}.cls-6{fill:#2ec5f3;}.cls-7{fill:#231f20;}.cls-8{fill:#010101;}.cls-9{fill:#163d69;}.cls-10{fill:#0e73ba;}.cls-11{stroke:#000;stroke-miterlimit:10;}.cls-12{fill:#142032;}.cls-13{fill:#f8991d;}.cls-14{fill:#3860ac;}</style></defs><path class="cls-1" d="M757.84,234.18c-1.57.55,1.57,1.58,3.86,2.16,15.14,3.83,136.51,2.92,134.87-3.07-1.29-4.72-119.84-5.78-138.73.91Z" transform="translate(-321 -11.78)"/><path class="cls-2" d="M838.62,49.45c-47,18.44-142.6,79.1-198.2,64.34-32.94-8.75-66.5-17.45-101-19.08-17-.81-34.33.21-50.79,4.38-16.28,4.12-31.49,12-46.06,19.53C410.73,135,391.4,143.3,364,164.7c-11.79,9.23-28.48,30.83-34.76,44-2.39,5-8.12,21.46-8.14,31.87,0,2,0,5.16-.11,7.1,0,.67,0,1.19,0,1.48s-.07.42.08.42c1.59,0,3.59,0,5.2,0h873c0-33.65,2.67-96.31-3.89-162.27C1189.19,24.66,1021.13-22.18,838.62,49.45Z" transform="translate(-321 -11.78)"/><path class="cls-3" d="M321,249.59c13.13-28.06,42.18-44,65.72-51.31C491.25,166,526.51,215,624.82,189.14c336.58-88.45,182.94,32.47,369.36,1.19,73.5-12.33,146.41,17.81,185.79,59.26Z" transform="translate(-321 -11.78)"/><path class="cls-4" d="M1173.53,243.2c2.23,2.1,19.1,4.23,21.16,6.39H337.89c90.61-37.14,340.25-57.75,510.71-47.91,150.74,8.7,66.62,2.91-4.29,29.06-28.8,10.62-13.2,18.06,21.93,18.06,87.28,0,227.52-28.75,300.39-8.17a40.35,40.35,0,0,1,6.9,2.57Z" transform="translate(-321 -11.78)"/><path class="cls-4" d="M1049.94,222.65c.06.66,1,1.2,2.45,1.64,9.59,2.92,80.74,3.09,80.74-.26,0-1.06-8.39-2.07-20.71-2.65,1.76-.48,3.14-.48,2.77-1.65-.66-2.1-65.73-2.19-65.25,2.92Z" transform="translate(-321 -11.78)"/><path class="cls-4" d="M502.19,194.91c-.08.91-1.23,1.64-3,2.25-11.8,4-99.42,4.23-99.42-.35,0-1.46,10.33-2.83,25.5-3.63-2.16-.66-3.86-.65-3.41-2.26.81-2.87,80.93-3,80.35,4Z" transform="translate(-321 -11.78)"/><path class="cls-4" d="M874.62,206.68c-.9.6.89,1.72,2.21,2.36,8.65,4.2,78,3.2,77.09-3.36-.74-5.17-68.5-6.33-79.3,1Z" transform="translate(-321 -11.78)"/><path class="cls-3" d="M497.93,229.59c-.9.61.9,1.73,2.21,2.37,8.66,4.2,78,3.2,77.1-3.36-.74-5.18-68.5-6.33-79.31,1Z" transform="translate(-321 -11.78)"/><path class="cls-5" d="M1069,124.85c37.34-4,76.33,4.52,89.22-9.6a27.91,27.91,0,0,0,4.83-7.62c2.59-5.83-2.07-9.35-5.35-12-9.83-8-30.45-6.64-39.1,3.75-3.13,0,4.83-22.16-16.95-19.84-16.8,1.79-16.18,15.55-16.18,15.46,0-8.09,1.75-23-13.33-24.58-14.75-1.56-21.9,17.36-21.9,25.94,0,19.36-.75-3.21-17.36.51-15.54,3.48-31.41,35.27,36.12,28Z" transform="translate(-321 -11.78)"/><path class="cls-5" d="M487.65,138.9c-25.65-2.24-30.07,2.51-45.64.83-26.91-2.89-13.78-31.8,11.53-29.61,11.54,1,22.8,12.21,22.8,12.16,0-4.5-1.2-12.79,9.16-13.67,10.13-.87,15,9.66,15,14.43,0,10.77.52-1.79,11.93.28,10.68,1.94,21.58,19.62-24.82,15.58Z" transform="translate(-321 -11.78)"/><path class="cls-5" d="M1019.11,57.38c15.65-.73,31.54,3,36.87-6.49a22.69,22.69,0,0,0,2-5.15c1.07-3.94-.86-6.31-2.21-8.12-4.06-5.4-12.59-4.49-16.16,2.54-1.3,0,2-15-7-13.41-6.94,1.21-6.65,10.49-6.68,10.45-11-15.22-37.46,21.6-6.81,20.18Z" transform="translate(-321 -11.78)"/><polygon class="cls-6" points="436.72 223.13 638.94 221.63 638.94 183.27 586.07 156.35 574.31 156.35 439.05 191.3 436.72 191.16 436.72 223.13"/><polygon class="cls-6" points="577.44 86.3 577.44 40.85 591.26 34.38 604.26 30.3 605.23 164.49 586.07 155.01 586.77 88.33 577.44 86.3"/><polygon class="cls-6" points="537.79 162.17 537.79 90.26 563.6 82.24 566.78 81.68 568.11 84.86 567.17 156.35 537.79 162.17"/><line class="cls-7" x1="660.08" y1="223.13" x2="413.86" y2="223.13"/><rect class="cls-8" x="413.86" y="221.63" width="246.23" height="2.99"/><polyline class="cls-9" points="605.23 167.48 605.23 31.77 632.04 41.37 632.04 179.38"/><polygon class="cls-8" points="629.24 179.38 634.84 179.38 634.84 39.22 602.43 27.61 602.43 167.48 608.03 167.48 608.03 35.93 629.24 43.53 629.24 179.38"/><polyline class="cls-9" points="586.77 158.09 586.77 88.33 568.11 83.8 568.11 155.85"/><polygon class="cls-8" points="583.98 158.09 589.57 158.09 589.57 85.82 565.31 79.94 565.31 155.85 570.91 155.85 570.91 87.67 583.98 90.84 583.98 158.09"/><polygon class="cls-8" points="576.71 87.21 579.51 87.21 579.51 41.07 604.49 30.92 603.49 28.12 576.71 39.01 576.71 87.21"/><polygon class="cls-8" points="536.4 161.56 539.2 161.56 539.2 92.14 566.17 82.77 565.3 79.92 536.4 89.97 536.4 161.56"/><polygon class="cls-9" points="503.77 107.62 507.69 167.3 487.68 171.72 491.19 107.62 503.77 107.62"/><path class="cls-8" d="M811.53,118.65h13.89l4,61-21.5,4.74Zm12.59,1.5H812.85l-3.41,62.42L828,178.48Z" transform="translate(-321 -11.78)"/><polygon class="cls-9" points="473.46 91.01 477.38 175.25 457.38 181.48 460.89 91.01 473.46 91.01"/><path class="cls-8" d="M781.19,102.76l0-.71h13.91l4,85.54-21.47,6.68Zm12.61.78H782.56l-3.44,88.71,18.54-5.77Z" transform="translate(-321 -11.78)"/><rect class="cls-8" x="595.68" y="31.77" width="1.4" height="129.8"/><rect class="cls-8" x="586.07" y="35.78" width="1.4" height="66.54"/><rect class="cls-8" x="558.53" y="82.24" width="1.4" height="74.11"/><rect class="cls-8" x="553.9" y="85.82" width="1.4" height="75.74"/><rect class="cls-8" x="542.66" y="87.7" width="1.4" height="74.47"/><rect class="cls-8" x="548.54" y="87.21" width="1.4" height="72.71"/><rect class="cls-8" x="555.27" y="161.56" width="2.8" height="59.19"/><rect class="cls-8" x="557.7" y="161.56" width="8.39" height="59.19"/><rect class="cls-8" x="541.96" y="164.49" width="2.8" height="56.27"/><rect class="cls-8" x="528.04" y="167.19" width="2.8" height="53.56"/><rect class="cls-8" x="517.17" y="167.19" width="2.8" height="53.56"/><rect class="cls-8" x="506.29" y="167.19" width="2.8" height="53.56"/><rect class="cls-8" x="496.58" y="171.72" width="2.8" height="49.04"/><rect class="cls-8" x="483.81" y="175.6" width="2.8" height="45.15"/><rect class="cls-8" x="473.29" y="177.98" width="2.8" height="42.77"/><rect class="cls-8" x="463.6" y="180.87" width="2.8" height="39.88"/><rect class="cls-8" x="450.4" y="183.27" width="2.8" height="37.48"/><polygon class="cls-8" points="433.74 223.13 439.34 223.13 439.34 189.15 581.76 156.99 636.25 185.71 636.25 223.13 641.85 223.13 641.85 181.99 582.5 150.7 433.74 184.29 433.74 223.13"/><path class="cls-10" d="M909.84,168.13S762.7,204.26,760.12,204.41" transform="translate(-321 -11.78)"/><path class="cls-8" d="M760.31,208.14c2.6-.15,106-25.48,150.31-36.36l-1.57-7.29c-40.11,9.85-145.14,35.55-149.32,36.2l.32,2.39Z" transform="translate(-321 -11.78)"/><polygon class="cls-8" points="603.51 28.18 612.58 32.42 603.11 31.09 603.51 28.18"/><polygon class="cls-8" points="602.43 27.61 576.74 38.99 603.4 28.98 602.43 27.61"/><polygon class="cls-8" points="565.1 79.94 577.44 82.24 577.44 86.3 565.31 85.13 565.1 79.94"/><path class="cls-11" d="M796,70.05a4.56,4.56,0,0,0-1.58.28c0-.15,0-.29,0-.44a5.74,5.74,0,0,0-10.08-3.75,8.66,8.66,0,0,0-15.46,1.63,6,6,0,0,0-8.18,5.61q0,.33,0,.66h0a4.62,4.62,0,1,0,3.12,8c0,.06,0,.12,0,.18a6.6,6.6,0,0,0,12.22,3.47,9.93,9.93,0,0,0,18.81-4.43,10,10,0,0,0-.2-2,5,5,0,0,0,1.35.19,4.72,4.72,0,0,0,0-9.43Z" transform="translate(-321 -11.78)"/><path class="cls-11" d="M853,18.27a4.7,4.7,0,0,0-1.67.6,4.43,4.43,0,0,0-.06-.51,6.58,6.58,0,0,0-7.37-5.66,6.19,6.19,0,0,0-4.33,3.1,9.41,9.41,0,0,0-8.76-3.39,9.59,9.59,0,0,0-7.74,8.1,6.1,6.1,0,0,0-2.45-.09,6.87,6.87,0,0,0-5.37,8.09,6.17,6.17,0,0,0,.17.77h-.05a5.27,5.27,0,0,0-4.12,6.21,5.28,5.28,0,0,0,5.91,4.55,4.9,4.9,0,0,0,3.16-2l0,.21a7.56,7.56,0,0,0,8.46,6.5,7.16,7.16,0,0,0,5.5-4.66,10.88,10.88,0,0,0,10.73,4.8c6-1,9.95-7,8.88-13.36a12.22,12.22,0,0,0-.6-2.29,5,5,0,0,0,1.5,0,5.4,5.4,0,0,0,4.22-6.35A5.39,5.39,0,0,0,853,18.27Z" transform="translate(-321 -11.78)"/><path class="cls-12" d="M777.5,75c.22-.91.45-1.81.67-2.72.11-.48.18-1,.84-1s.79.55.91,1.06c.23,1,.46,1.89.71,3a22.11,22.11,0,0,0,.93-3,2.82,2.82,0,0,1,.27-.72.69.69,0,0,1,.91-.19c.3.14.27.41.19.68-.47,1.5-.95,3-1.41,4.5a.81.81,0,0,1-.91.64.76.76,0,0,1-.76-.68c-.26-1-.5-2-.78-3.17a10.34,10.34,0,0,0-.63,2.27c-.08.33-.16.65-.25,1a.72.72,0,0,1-.72.59.76.76,0,0,1-.88-.52c-.48-1.58-1-3.15-1.43-4.73a.42.42,0,0,1,.32-.6.71.71,0,0,1,1,.5c.19.69.35,1.38.53,2.07l.33,1.15Z" transform="translate(-321 -11.78)"/><path class="cls-13" d="M769.06,78.69c.94.42,1.67.76,2.42,1.08a18.45,18.45,0,0,0,13.89.39c.18-.07.34-.15.52-.21s.54-.23.72,0-.12.55-.35.71a12.45,12.45,0,0,1-4.85,2,14.26,14.26,0,0,1-11.17-2.53A2.22,2.22,0,0,1,769.06,78.69Z" transform="translate(-321 -11.78)"/><path class="cls-12" d="M772.19,71.17c1.73,0,2.41.66,2.49,2.23a15.78,15.78,0,0,0,.15,2.91c.13.6-.38,1-.85.7s-.9-.05-1.32.12a2,2,0,0,1-2.53-.53,1.86,1.86,0,0,1,1.3-2.9,8.39,8.39,0,0,1,1.12,0c.3,0,.64,0,.72-.36a.79.79,0,0,0-.45-.93,1.65,1.65,0,0,0-1.09-.13,6.57,6.57,0,0,0-.76.21c-.29.08-.61.22-.74-.21a.6.6,0,0,1,.37-.73A3.27,3.27,0,0,1,772.19,71.17Zm-.14,5c.76,0,1.22-.38,1.24-.94s-.52-.62-.95-.63c-.77,0-1.21.34-1.18.88S771.64,76.19,772.05,76.2Z" transform="translate(-321 -11.78)"/><path class="cls-12" d="M785.69,71.17a2.45,2.45,0,0,1,1.4.32.59.59,0,0,1,.26.68c-.11.37-.4.29-.64.2a2.83,2.83,0,0,0-1.44-.13.64.64,0,0,0-.55.49c-.07.3.14.48.37.63a4.69,4.69,0,0,0,1.15.43c1,.36,1.57,1.07,1.47,1.87a2.09,2.09,0,0,1-1.86,1.67,3.72,3.72,0,0,1-2-.25c-.37-.15-.68-.42-.51-.86s.51-.16.78-.11a5.11,5.11,0,0,0,1.56.06c.33,0,.59-.19.63-.54s-.18-.55-.48-.67-.71-.23-1.05-.37c-1.08-.41-1.55-1.1-1.37-2a1.89,1.89,0,0,1,1.92-1.39Z" transform="translate(-321 -11.78)"/><path class="cls-13" d="M787.18,81.7c-.17-.57.24-1,.34-1.49.17-.91.09-1-.85-1.09-.37,0-.75,0-1.12,0-.14,0-.31,0-.35-.21a.32.32,0,0,1,.2-.36,4.1,4.1,0,0,1,2.84-.25c.24.06.34.27.41.5A3.09,3.09,0,0,1,787.18,81.7Z" transform="translate(-321 -11.78)"/><path class="cls-14" d="M837.4,19.49c-.28.56-.57,1.11-.86,1.66q-3.3,6.32-6.59,12.63a.46.46,0,0,1-.41.28c-.89.08-1.78.19-2.68.29l-1.36.13a.45.45,0,0,1,.1-.26q2.45-4.32,4.87-8.64a1.26,1.26,0,0,1,.25-.31l4.39-3.85,2.17-1.92.09-.05Z" transform="translate(-321 -11.78)"/><path class="cls-14" d="M838.11,21.89c-.07,0-.08.06-.1.1q-1.43,3-2.87,6.06a.23.23,0,0,0,.06.31c.28.34.55.68.83,1,1.2,1.46,2.4,2.91,3.59,4.37l.75.91-2,.24-2.43.3-2.39.29-2.4.29-.38.08h1.76L845.8,36C843.22,31.27,840.67,26.58,838.11,21.89Z" transform="translate(-321 -11.78)"/></svg>