<svg width="48" height="48" viewBox="0 0 48 48" fill="none" xmlns="http://www.w3.org/2000/svg">
<g clip-path="url(#clip0)">
<path d="M35.75 23.0575L24.5525 12.6675C24.4006 12.5314 24.2039 12.4561 24 12.4561C23.796 12.4561 23.5993 12.5314 23.4475 12.6675L12.2625 23.0575C11.7025 23.5775 12.0975 24.465 12.89 24.465H15.18C15.2332 24.465 15.2858 24.4755 15.335 24.4958C15.3841 24.5162 15.4287 24.546 15.4663 24.5836C15.504 24.6212 15.5338 24.6659 15.5541 24.715C15.5745 24.7642 15.585 24.8168 15.585 24.87V34.735C15.585 34.9498 15.6703 35.1559 15.8222 35.3078C15.9741 35.4597 16.1801 35.545 16.395 35.545H31.605C31.8198 35.545 32.0258 35.4597 32.1777 35.3078C32.3296 35.1559 32.415 34.9498 32.415 34.735V24.87C32.415 24.7626 32.4576 24.6596 32.5336 24.5836C32.6095 24.5077 32.7126 24.465 32.82 24.465H35.11C35.9025 24.465 36.2975 23.5775 35.75 23.0575Z" fill="url(#paint0_linear)"/>
<path d="M21.43 28.5325H26.57C26.6924 28.5439 26.8057 28.6024 26.8859 28.6957C26.9661 28.7889 27.007 28.9097 27 29.0325V35.5325H21V29.0325C20.993 28.9097 21.0339 28.7889 21.1141 28.6957C21.1943 28.6024 21.3075 28.5439 21.43 28.5325Z" fill="#E6E6E6"/>
<path d="M12.89 24.465H13.605L23.4475 15.3225C23.5993 15.1864 23.796 15.1111 24 15.1111C24.2039 15.1111 24.4006 15.1864 24.5525 15.3225L34.395 24.465H35.11C35.9025 24.465 36.2975 23.5775 35.7375 23.0575L24.5525 12.6675C24.4006 12.5314 24.2039 12.4561 24 12.4561C23.796 12.4561 23.5993 12.5314 23.4475 12.6675L12.2625 23.0575C11.7025 23.5775 12.0975 24.465 12.89 24.465Z" fill="#005BA1"/>
</g>
<defs>
<linearGradient id="paint0_linear" x1="24" y1="35.545" x2="24" y2="12.455" gradientUnits="userSpaceOnUse">
<stop stop-color="#0078D4"/>
<stop offset="0.17" stop-color="#1C84DC"/>
<stop offset="0.38" stop-color="#3990E4"/>
<stop offset="0.59" stop-color="#4D99EA"/>
<stop offset="0.8" stop-color="#5A9EEE"/>
<stop offset="1" stop-color="#5EA0EF"/>
</linearGradient>
<clipPath id="clip0">
<rect width="24" height="24" fill="white" transform="translate(12 12)"/>
</clipPath>
</defs>
</svg>
