<svg version="1.2" xmlns="http://www.w3.org/2000/svg" viewBox="0 0 194 145" width="194" height="145"><style>.a{fill:#47c1f1}.b{fill:#1d1d1b}.c{fill:#12100b}.d{fill:#0d3e68}.e{fill:#116cb4}</style><path class="a" d="m18 143.9v-23.6l1.8 0.1 106.5-25.7h9.2l41.6 19.8v28.3l-159.1 1.1z"/><path class="a" d="m128.7 43.2v-33.4l10.9-4.8 10.3-3 0.7 98.7-15.1-6.9 0.6-49.1-7.4-1.5z"/><path class="a" d="m97.6 99v-52.9l20.3-5.9 2.5-0.4 1 2.4-0.7 52.5-23.1 4.3z"/><path class="b" d="m193.8 143.9h-193.8"/><path class="c" d="m0 142.8h193.8v2.2h-193.8z"/><path class="d" d="m150.6 102.9v-99.8l21.1 7.1v101.5"/><path class="c" d="m169.5 111.7v-99.9l-16.7-5.6v96.7h-4.4v-102.8l25.5 8.5v103.1h-4.4z"/><path class="d" d="m121.4 94.4v-53l14.7 3.3v51.3"/><path class="c" d="m133.9 96v-49.4l-10.3-2.4v50.2h-4.4v-55.9l19.1 4.4v53.1h-4.4z"/><path class="c" d="m128.2 43.9v-35.5l21-8 0.8 2.1-19.6 7.5v33.9h-2.2z"/><path class="c" d="m96.4 98.6v-52.7l22.8-7.4 0.7 2.1-21.2 6.9v51.1h-2.3z"/><path class="d" d="m70.8 58.9l3.1 43.9-15.8 3.2 2.8-47.1h9.9z"/><path fill-rule="evenodd" class="c" d="m60.4 58.4h10.9l3.1 44.8-16.9 3.5zm9.9 1.1h-8.8l-2.7 45.9 14.5-3z"/><path class="d" d="m46.9 46.7l3.1 61.9-15.7 4.6 2.7-66.5h9.9z"/><path fill-rule="evenodd" class="c" d="m36.5 46.7v-0.6h10.9l3.2 62.9-16.9 5zm9.9 0.6h-8.8l-2.7 65.2 14.6-4.2z"/><path class="c" d="m143.1 3.1h1.1v95.5h-1.1z"/><path class="c" d="m135.5 6.1h1.1v48.9h-1.1z"/><path class="c" d="m113.9 40.2h1.1v54.5h-1.1z"/><path class="c" d="m110.2 42.9h1.1v55.7h-1.1z"/><path class="c" d="m101.4 44.3h1.1v54.7h-1.1z"/><path class="c" d="m106 43.9h1.1v53.5h-1.1z"/><path class="c" d="m111.3 98.6h2.2v43.5h-2.2z"/><path class="c" d="m113.2 98.6h6.6v43.5h-6.6z"/><path class="c" d="m100.8 100.7h2.2v41.4h-2.2z"/><path class="c" d="m89.9 102.7h2.2v39.4h-2.2z"/><path class="c" d="m81.3 102.7h2.2v39.4h-2.2z"/><path class="c" d="m72.8 102.7h2.2v39.4h-2.2z"/><path class="c" d="m65.1 106h2.2v36.1h-2.2z"/><path class="c" d="m55.1 108.9h2.2v33.2h-2.2z"/><path class="c" d="m46.8 110.7h2.2v31.4h-2.2z"/><path class="c" d="m39.2 112.8h2.2v29.3h-2.2z"/><path class="c" d="m28.8 114.5h2.2v27.6h-2.2z"/><path class="c" d="m15.7 143.9v-28.6l117-24.7 46.7 23v30.3h-4.4v-27.6l-42.9-21.1-112 23.7v25h-4.4z"/><path class="e" d="m137.7 94.7c0 0-115.8 26.6-117.8 26.7"/><path class="c" d="m19.8 120.4l-0.2-1.7c3.3-0.5 85.9-19.4 117.5-26.6l1.2 5.3c-34.9 8-116.2 26.7-118.3 26.8z"/><path class="c" d="m149.3 0.5l7.1 3.1-7.5-1 0.4-2.1z"/><path class="c" d="m148.4 0.1l0.8 1-21 7.3 20.2-8.3z"/><path class="c" d="m119 38.5l9.7 1.7v3l-9.5-0.8-0.2-3.9z"/></svg>