<svg id="Layer_1" data-name="Layer 1" xmlns="http://www.w3.org/2000/svg" viewBox="0 0 1500 500"><defs><style>.cls-1{fill:#9db63b;}.cls-1,.cls-2,.cls-3,.cls-4,.cls-5{fill-rule:evenodd;}.cls-2{fill:#bae4ee;}.cls-3{fill:#002e36;}.cls-4{fill:#00192a;}.cls-11,.cls-5{fill:#fff;}.cls-6{fill:#2ec5f3;}.cls-7{fill:#231f20;}.cls-8{fill:#010101;}.cls-9{fill:#163d69;}.cls-10{fill:#0e73ba;}.cls-11{stroke:#000;stroke-miterlimit:10;}.cls-12{fill:#142032;}.cls-13{fill:#f8991d;}.cls-14{fill:#3860ac;}</style></defs><path class="cls-1" d="M778.6,473.68c-2.68.94,2.69,2.7,6.61,3.69,25.85,6.55,233.13,5,230.33-5.24-2.21-8.07-204.66-9.87-236.94,1.55Z"/><path class="cls-2" d="M884,113.72c-80.23,35.6-243.55,152.67-338.49,124.18C489.24,221,431.93,204.21,372.94,201.07c-29.1-1.56-58.62.4-86.74,8.45-27.8,8-53.78,23.17-78.67,37.69-54.3,31.68-87.31,47.65-134,89-20.14,17.8-48.64,59.49-59.37,85C10,430.82.26,462.56.23,482.65c0,3.9-.08,10-.2,13.71,0,1.29,0,2.28,0,2.85,0,.35-.12.8.13.8,2.72,0,6.14,0,8.88,0,3.26,0,10.79,0,14.28,0H1500c0-64.94,4.57-185.89-6.64-313.19C1482.71,65.87,1195.69-24.54,884,113.72Z"/><path class="cls-3" d="M0,500c22.42-47.92,72-75.22,112.25-87.63,178.49-55.11,238.72,28.5,406.62-15.62,574.82-151,312.42,55.46,630.79,2.05,125.53-21.06,250,30.41,317.3,101.2Z"/><path class="cls-4" d="M1456,489.09c3.82,3.58,32.62,7.22,36.13,10.91H28.83c154.74-63.43,581.1-98.63,872.22-81.82,257.43,14.86,113.76,5-7.33,49.63-49.19,18.14-22.54,30.84,37.45,30.84,149.07,0,388.57-49.09,513-13.95a68.55,68.55,0,0,1,11.78,4.39Z"/><path class="cls-4" d="M1244.9,454c.11,1.14,1.7,2,4.19,2.81,16.37,5,137.89,5.28,137.89-.43,0-1.82-14.33-3.54-35.37-4.54,3-.82,5.36-.82,4.72-2.82-1.12-3.59-112.24-3.74-111.43,5Z"/><path class="cls-4" d="M315.32,411.47c-.13,1.55-2.09,2.8-5.15,3.84-20.16,6.81-169.79,7.22-169.79-.59,0-2.5,17.64-4.84,43.54-6.2-3.69-1.14-6.59-1.12-5.81-3.87,1.39-4.89,138.21-5.09,137.21,6.82Z"/><path class="cls-4" d="M978.05,426.71c-1.53,1,1.53,3,3.78,4,14.77,7.18,133.27,5.47,131.66-5.73-1.26-8.85-117-10.81-135.44,1.69Z"/><path class="cls-3" d="M376,441.53c-1.53,1,1.53,3,3.78,4,14.77,7.17,133.27,5.47,131.66-5.74-1.26-8.84-117-10.81-135.44,1.7Z"/><path class="cls-5" d="M1277.42,287c63.77-6.87,130.35,7.72,152.38-16.38a47.76,47.76,0,0,0,8.24-13c4.42-10-3.54-16-9.14-20.53-16.78-13.65-52-11.34-66.78,6.41-5.34,0,8.25-37.86-28.95-33.89-28.69,3.06-27.63,26.55-27.63,26.41,0-13.82,3-39.27-22.77-42-25.18-2.66-37.39,29.66-37.39,44.31,0,33.06-1.28-5.48-29.64.87-26.56,5.94-53.65,60.23,61.68,47.81Z"/><path class="cls-5" d="M359.75,311c-43.82-3.82-51.36,4.29-78,1.42-46-4.95-23.53-54.3,19.69-50.57,19.71,1.7,38.94,20.85,38.94,20.77,0-7.69-2.05-21.84,15.65-23.36,17.3-1.48,25.69,16.5,25.69,24.65,0,18.39.88-3.05,20.37.48,18.24,3.31,36.86,33.51-42.38,26.61Z"/><path class="cls-5" d="M1111.1,125c40.9-1.81,82.42,7.6,96.35-16.12A54.94,54.94,0,0,0,1212.67,96c2.79-9.8-2.24-15.72-5.78-20.2-10.61-13.43-32.89-11.16-42.23,6.31-3.38,0,5.21-37.26-18.3-33.35-18.14,3-17.39,26.09-17.47,26C1100.08,36.93,1031,128.51,1111.1,125Z"/><polygon class="cls-6" points="778.4 474.93 1123.78 472.37 1123.78 406.87 1033.48 360.89 1013.39 360.89 782.39 420.57 778.4 420.34 778.4 474.93"/><polygon class="cls-6" points="1018.74 241.25 1018.74 163.62 1042.34 152.57 1064.55 145.61 1066.2 374.79 1033.48 358.6 1034.68 244.73 1018.74 241.25"/><polygon class="cls-6" points="951.03 370.83 951.03 248.02 995.11 234.32 1000.52 233.36 1002.8 238.8 1001.2 360.89 951.03 370.83"/><line class="cls-7" x1="1159.88" y1="474.93" x2="739.36" y2="474.93"/><rect class="cls-8" x="739.36" y="472.37" width="420.52" height="5.11"/><polyline class="cls-9" points="1066.2 379.89 1066.2 148.12 1111.98 164.52 1111.98 400.22"/><polygon class="cls-8" points="1107.2 400.22 1116.76 400.22 1116.76 160.84 1061.42 141.01 1061.42 379.89 1070.98 379.89 1070.98 155.22 1107.2 168.2 1107.2 400.22"/><polyline class="cls-9" points="1034.68 363.86 1034.68 244.73 1002.8 236.99 1002.8 360.04"/><polygon class="cls-8" points="1029.9 363.86 1039.45 363.86 1039.45 240.44 998.02 230.38 998.02 360.04 1007.58 360.04 1007.58 243.6 1029.9 249.01 1029.9 363.86"/><polygon class="cls-8" points="1017.5 242.8 1022.27 242.8 1022.27 164.01 1064.93 146.67 1063.23 141.89 1017.5 160.48 1017.5 242.8"/><polygon class="cls-8" points="948.64 369.79 953.42 369.79 953.42 251.23 999.49 235.22 998.01 230.36 948.64 247.52 948.64 369.79"/><polygon class="cls-9" points="892.92 277.66 899.61 379.59 865.45 387.13 871.43 277.66 892.92 277.66"/><path class="cls-8" d="M870.31,276.38H894l6.85,104.24-36.72,8.1Zm21.5,2.55H872.56l-5.83,106.61,31.62-7Z"/><polygon class="cls-9" points="841.16 249.3 847.86 393.17 813.69 403.8 819.68 249.3 841.16 249.3"/><path class="cls-8" d="M818.49,249.25l0-1.23H842.3l6.79,146.09-36.66,11.42ZM840,250.58h-19.2L815,402.08l31.66-9.86Z"/><rect class="cls-8" x="1049.89" y="148.12" width="2.39" height="221.67"/><rect class="cls-8" x="1033.48" y="154.97" width="2.39" height="113.64"/><rect class="cls-8" x="986.43" y="234.32" width="2.39" height="126.57"/><rect class="cls-8" x="978.54" y="240.43" width="2.39" height="129.36"/><rect class="cls-8" x="959.35" y="243.65" width="2.39" height="127.19"/><rect class="cls-8" x="969.38" y="242.8" width="2.39" height="124.17"/><rect class="cls-8" x="980.87" y="369.79" width="4.78" height="101.09"/><rect class="cls-8" x="985.03" y="369.79" width="14.33" height="101.09"/><rect class="cls-8" x="958.15" y="374.79" width="4.78" height="96.09"/><rect class="cls-8" x="934.38" y="379.4" width="4.78" height="91.48"/><rect class="cls-8" x="915.8" y="379.4" width="4.78" height="91.48"/><rect class="cls-8" x="897.22" y="379.4" width="4.78" height="91.48"/><rect class="cls-8" x="880.63" y="387.13" width="4.78" height="83.75"/><rect class="cls-8" x="858.83" y="393.77" width="4.78" height="77.11"/><rect class="cls-8" x="840.87" y="397.83" width="4.78" height="73.05"/><rect class="cls-8" x="824.32" y="402.77" width="4.78" height="68.11"/><rect class="cls-8" x="801.78" y="406.87" width="4.78" height="64.01"/><polygon class="cls-8" points="773.33 474.93 782.88 474.93 782.88 416.9 1026.12 361.97 1119.18 411.03 1119.18 474.93 1128.74 474.93 1128.74 404.67 1027.38 351.24 773.33 408.61 773.33 474.93"/><path class="cls-10" d="M1038.2,360.89s-251.29,61.69-255.69,61.94"/><path class="cls-8" d="M782.83,429.21c4.43-.25,181-43.51,256.7-62.1l-2.67-12.45c-68.51,16.82-247.88,60.71-255,61.83l.55,4.08Z"/><polygon class="cls-8" points="1063.26 141.98 1078.75 149.23 1062.58 146.97 1063.26 141.98"/><polygon class="cls-8" points="1061.43 141.02 1017.55 160.46 1063.07 143.35 1061.43 141.02"/><polygon class="cls-8" points="997.66 230.38 1018.74 234.32 1018.74 241.25 998.02 239.25 997.66 230.38"/><path class="cls-11" d="M857.51,184.83a11.63,11.63,0,0,0-3.93.68c0-.35,0-.71,0-1.07a14.28,14.28,0,0,0-25.08-9.35,21.52,21.52,0,0,0-38.43,4.07,14.89,14.89,0,0,0-20.26,15.58h-.1a11.48,11.48,0,1,0,7.76,19.94c0,.15,0,.3,0,.45a16.41,16.41,0,0,0,30.37,8.63,24.69,24.69,0,0,0,46.28-16,11.6,11.6,0,0,0,3.35.49,11.73,11.73,0,1,0,0-23.45Z"/><path class="cls-11" d="M940.67,75.46a9.94,9.94,0,0,0-3.37,1.23c0-.35-.08-.69-.13-1-1.25-7.5-7.93-12.63-14.92-11.47a12.47,12.47,0,0,0-8.79,6.28,19.08,19.08,0,0,0-17.74-6.88C887.48,65,881.39,71.72,880,80a12.69,12.69,0,0,0-5-.17c-7.32,1.22-12.2,8.56-10.89,16.4a12.92,12.92,0,0,0,.34,1.55l-.08,0c-5.62.93-9.37,6.57-8.37,12.59s6.37,10.15,12,9.21a9.93,9.93,0,0,0,6.4-4l.06.44c1.43,8.61,9.11,14.5,17.14,13.17a14.57,14.57,0,0,0,11.15-9.45c4.87,7.1,13.17,11.16,21.75,9.73,12.09-2,20.14-14.13,18-27.08a25.91,25.91,0,0,0-1.22-4.64,9.41,9.41,0,0,0,3,0c5.75-1,9.57-6.71,8.55-12.86S946.42,74.51,940.67,75.46Z"/><path class="cls-12" d="M811.46,197.1c.56-2.25,1.14-4.5,1.68-6.76.28-1.19.45-2.47,2.08-2.51,1.82-.05,2,1.38,2.28,2.64.56,2.35,1.12,4.7,1.76,7.36,1.35-2.54,1.38-5.17,2.3-7.53a7.51,7.51,0,0,1,.67-1.81,1.72,1.72,0,0,1,2.26-.47c.75.35.68,1,.47,1.69-1.16,3.73-2.35,7.45-3.49,11.19a2,2,0,0,1-2.26,1.59,1.88,1.88,0,0,1-1.9-1.68c-.63-2.53-1.25-5.06-1.94-7.87-1,1.92-1.09,3.83-1.55,5.63-.21.81-.42,1.62-.64,2.43a1.78,1.78,0,0,1-1.77,1.48c-1,0-1.87-.23-2.2-1.3q-1.8-5.87-3.57-11.75a1.07,1.07,0,0,1,.81-1.51,1.78,1.78,0,0,1,2.41,1.27c.48,1.69.88,3.42,1.33,5.13.25,1,.54,1.91.81,2.87Z"/><path class="cls-13" d="M790.47,206.3c2.36,1.06,4.18,1.91,6,2.69A46,46,0,0,0,831,210c.44-.16.86-.37,1.29-.53.62-.23,1.35-.55,1.79.12.57.89-.29,1.36-.86,1.76a30.94,30.94,0,0,1-12.07,4.87c-10.14,1.9-19.38-.43-27.77-6.3C792.35,209.12,791,208.48,790.47,206.3Z"/><path class="cls-12" d="M798.27,187.61c4.31,0,6,1.63,6.18,5.55.12,2.41-.17,4.82.37,7.23.34,1.49-.92,2.56-2.1,1.74-1.4-1-2.23-.14-3.29.29-2.61,1.06-5,.55-6.28-1.31a4.62,4.62,0,0,1,3.23-7.22,23.41,23.41,0,0,1,2.78-.09c.74,0,1.59.09,1.79-.9a2,2,0,0,0-1.11-2.32,4.22,4.22,0,0,0-2.73-.32,18.1,18.1,0,0,0-1.88.52c-.71.2-1.52.55-1.84-.5a1.49,1.49,0,0,1,.93-1.83A7.91,7.91,0,0,1,798.27,187.61Zm-.34,12.5c1.87,0,3-.94,3.06-2.34,0-1.73-1.28-1.54-2.36-1.55-1.89,0-3,.83-2.93,2.19C795.77,199.94,796.89,200.08,797.93,200.11Z"/><path class="cls-12" d="M831.83,187.62a5.8,5.8,0,0,1,3.48.78,1.49,1.49,0,0,1,.66,1.7c-.27.91-1,.7-1.6.49a7,7,0,0,0-3.57-.33,1.61,1.61,0,0,0-1.38,1.23c-.17.74.36,1.2.92,1.57a12,12,0,0,0,2.86,1.06c2.52.89,3.9,2.66,3.67,4.64a5.22,5.22,0,0,1-4.64,4.17,9.29,9.29,0,0,1-4.92-.64c-.92-.37-1.68-1-1.26-2.13s1.26-.39,1.94-.26a13.29,13.29,0,0,0,3.88.14,1.52,1.52,0,0,0,.38-3c-.87-.33-1.77-.58-2.64-.91-2.68-1-3.84-2.75-3.4-5,.39-2,2.29-3.37,4.78-3.48Z"/><path class="cls-13" d="M835.55,213.8c-.44-1.43.6-2.5.83-3.72.43-2.25.22-2.61-2.11-2.7-.92,0-1.86,0-2.79,0-.35,0-.76-.05-.87-.52a.8.8,0,0,1,.51-.89,10.16,10.16,0,0,1,7.07-.61,1.47,1.47,0,0,1,1,1.23C839.76,208.78,837.87,212.66,835.55,213.8Z"/><path class="cls-14" d="M909,78l-1.74,3.36q-6.69,12.8-13.36,25.59a.9.9,0,0,1-.83.57c-1.81.16-3.62.38-5.42.58l-2.76.26a1,1,0,0,1,.2-.52L895,90.29a2.39,2.39,0,0,1,.51-.63l8.88-7.8L908.77,78c.05,0,.11-.06.17-.1Z"/><path class="cls-14" d="M910.45,82.81c-.15,0-.16.13-.2.2q-2.91,6.13-5.83,12.28a.53.53,0,0,0,.12.64c.57.67,1.13,1.36,1.7,2l7.27,8.85c.49.59,1,1.2,1.51,1.85l-4.13.49-4.93.59-4.83.59c-1.62.19-3.24.41-4.87.6-.3.06-.49.09-.78.16h3.57l27,.28Q918.21,97,910.45,82.81Z"/></svg>