<svg version="1.2" xmlns="http://www.w3.org/2000/svg" viewBox="0 0 375 227" width="375" height="227"><style>.a{fill:#47c1f1}.b{fill:#0d3e68}.c{fill:#1d1d1b}.d{fill:#12100b}.e{fill:#116cb4}</style><path class="a" d="m107.1 144.4v-23.5l1.9 0.1 106.4-25.7h9.3l41.6 19.8v28.2l-159.2 1.1z"/><path class="a" d="m217.9 43.7v-33.4l10.8-4.7 10.3-3 0.7 98.6-15-6.9 0.5-49.1-7.3-1.5z"/><path class="a" d="m186.7 99.5v-52.8l20.3-5.9 2.5-0.5 1 2.4-0.7 52.6-23.1 4.2z"/><path class="b" d="m8.1 193.7h-7.3v-38.3h7.3z"/><path class="b" d="m45.7 193.7h-7.2v-16q0-0.6-0.1-1.3 0-0.6-0.2-1.2-0.3-0.6-0.6-1.1-0.3-0.6-0.7-1.1-0.4-0.5-1-0.9-0.6-0.3-1.2-0.6-0.7-0.2-1.3-0.3-0.7-0.1-1.4-0.1-0.8 0.1-1.6 0.3-0.8 0.2-1.6 0.5-0.7 0.4-1.4 0.9-0.6 0.5-1.2 1.1-0.4 0.6-0.8 1.3-0.4 0.6-0.6 1.3-0.2 0.7-0.3 1.5-0.2 0.7-0.1 1.5v14.2h-7.2v-29.3h7.2v5.7q3.2-5.7 10.4-5.7 5.5 0 8.2 3.2 0.7 0.8 1.2 1.8 0.5 0.9 0.9 1.9 0.3 1.1 0.5 2.1 0.1 1.1 0.1 2.2z"/><path class="b" d="m62.1 193.7h-7.1v-22.9h-3.8v-5.2h3.8v-2.7q0-0.8 0-1.5 0.1-0.8 0.3-1.5 0.2-0.7 0.5-1.4 0.3-0.7 0.7-1.3 0.3-0.5 0.8-1 0.4-0.5 0.9-1 0.5-0.4 1.1-0.7 0.5-0.4 1.1-0.7 0.6-0.2 1.2-0.4 0.6-0.2 1.2-0.3 0.7-0.2 1.3-0.2 0.7-0.1 1.3-0.1 0.7 0 1.4 0.1 0.7 0.1 1.4 0.2 0.6 0.2 1.3 0.4 0.6 0.2 1.3 0.5l-1.3 5.8q-0.4-0.2-0.9-0.4-0.4-0.2-0.9-0.3-0.4-0.1-0.9-0.1-0.4-0.1-0.9-0.1-0.4 0-0.7 0.1-0.4 0-0.7 0.1-0.4 0.1-0.7 0.3-0.3 0.2-0.6 0.4-0.3 0.2-0.5 0.6-0.2 0.3-0.4 0.7-0.1 0.3-0.2 0.7 0 0.4 0 0.8v3h7.3v5.2h-7.3z"/><path class="b" d="m82.9 193.7h-7.1v-29.3h7.1v5.7q3-5.7 10-5.7v6.7q-5.2 0-7.6 2.2-0.6 0.7-1.1 1.4-0.5 0.7-0.8 1.5-0.3 0.8-0.4 1.7-0.1 0.8-0.1 1.7z"/><path fill-rule="evenodd" class="b" d="m105.4 193.7q-0.7 0.1-1.5 0-0.7-0.1-1.5-0.2-0.7-0.2-1.4-0.5-0.7-0.2-1.4-0.6-0.5-0.3-1-0.6-0.5-0.4-0.9-0.8-0.4-0.5-0.8-1-0.4-0.5-0.7-1-0.2-0.5-0.4-1.1-0.2-0.5-0.3-1.1-0.2-0.5-0.2-1.1-0.1-0.6-0.1-1.1 0-0.9 0.1-1.7 0.2-0.9 0.5-1.7 0.4-0.8 0.9-1.5 0.5-0.7 1.1-1.3 2.7-2.4 8.5-2.4h8.5c0-2-0.5-3.5-1.6-4.4q-0.6-0.4-1.2-0.7-0.6-0.3-1.2-0.4-0.7-0.2-1.3-0.3-0.7 0-1.3 0-1.2 0-2.3 0.2-1.1 0.2-2.2 0.5-1.1 0.3-2.2 0.8-1 0.4-2 1l-2.6-4.7q1.5-0.9 3-1.6 1.6-0.6 3.2-1.1 1.6-0.4 3.3-0.7 1.7-0.2 3.4-0.2 0.9 0 1.8 0 0.8 0.1 1.7 0.3 0.9 0.1 1.7 0.4 0.9 0.2 1.7 0.6 0.6 0.3 1.2 0.7 0.5 0.3 1 0.8 0.5 0.5 0.9 1 0.5 0.6 0.8 1.2 0.3 0.6 0.5 1.2 0.3 0.7 0.4 1.3 0.2 0.7 0.2 1.4 0.1 0.7 0.1 1.4l0.1 19h-7v-3.7q-3.3 3.7-9.5 3.7zm1.7-5.5q0.6 0.1 1.3 0 0.6-0.1 1.2-0.2 0.6-0.2 1.2-0.4 0.6-0.2 1.1-0.6 0.6-0.3 1-0.7 0.5-0.4 0.9-0.9 0.3-0.5 0.6-1 0.3-0.6 0.4-1.2v-2.6h-7.4q-5.5 0-5.5 3.5 0 0.3 0 0.6 0.1 0.4 0.2 0.7 0.1 0.3 0.2 0.6 0.1 0.3 0.3 0.5 0.2 0.2 0.4 0.5 0.2 0.2 0.5 0.3 0.2 0.2 0.5 0.3 0.2 0.1 0.5 0.2 0.3 0.1 0.6 0.2 0.4 0.1 0.7 0.2 0.3 0 0.6 0 0.4 0.1 0.7 0z"/><path class="b" d="m138.6 193.7q-1.6 0.1-3.2-0.2-1.7-0.2-3.2-0.7-1.6-0.6-3-1.4-1.4-0.8-2.7-1.8l2.5-4.8q1 0.8 2.2 1.4 1.2 0.7 2.4 1.1 1.3 0.5 2.6 0.7 1.3 0.2 2.7 0.2 4.3 0 4.3-2.6 0-0.4-0.1-0.7-0.1-0.3-0.3-0.6-0.2-0.3-0.4-0.6-0.3-0.2-0.6-0.4-0.5-0.3-1-0.5-0.6-0.3-1.1-0.5-0.6-0.2-1.1-0.4-0.6-0.1-1.2-0.2-0.8-0.2-1.7-0.5-0.8-0.2-1.6-0.6-0.8-0.3-1.5-0.7-0.8-0.3-1.6-0.8-2.8-1.9-3-6.1 0-0.6 0-1.3 0.1-0.6 0.3-1.2 0.2-0.6 0.5-1.2 0.3-0.6 0.7-1.1 0.4-0.5 0.8-0.9 0.5-0.5 1-0.8 0.5-0.4 1-0.7 0.6-0.2 1.2-0.5 0.6-0.2 1.3-0.4 0.7-0.2 1.4-0.3 0.7-0.1 1.4-0.1 0.7-0.1 1.4-0.1 1.5 0 2.9 0.2 1.4 0.2 2.7 0.6 1.4 0.4 2.7 1 1.3 0.6 2.5 1.3l-2.6 5.1q-1-0.6-2-1-1.1-0.5-2.1-0.8-1.1-0.4-2.2-0.5-1.2-0.2-2.3-0.3-3.9 0-3.9 2.5 0 0.3 0.1 0.6 0.1 0.3 0.2 0.6 0.2 0.3 0.5 0.5 0.2 0.2 0.5 0.3 0.4 0.2 0.8 0.4 0.5 0.2 0.9 0.4 0.5 0.2 0.9 0.3 0.5 0.2 0.9 0.3 0.6 0.1 1.1 0.3 0.6 0.1 1.2 0.3 0.5 0.2 1 0.4 0.6 0.2 1.1 0.4 0.6 0.2 1.1 0.4 0.5 0.3 1 0.6 0.5 0.2 0.9 0.6 0.5 0.3 0.9 0.7 0.3 0.2 0.5 0.5 0.2 0.2 0.4 0.5 0.3 0.3 0.4 0.6 0.2 0.3 0.3 0.6 0.5 1 0.6 2.1 0.2 1 0.1 2.1-0.1 1.1-0.5 2.1-0.4 1-1.1 1.9-0.4 0.5-0.8 0.9-0.5 0.4-1.1 0.8-0.5 0.4-1.1 0.7-0.5 0.2-1.2 0.4-0.7 0.3-1.4 0.4-0.7 0.2-1.4 0.3-0.7 0.1-1.4 0.2-0.8 0-1.5 0z"/><path class="b" d="m166 193.7q-0.8 0-1.6-0.1-0.8-0.1-1.6-0.4-0.8-0.3-1.5-0.7-0.7-0.4-1.3-0.9-2.5-2.1-2.5-6.6v-14.5h-4.1l-0.1-5.2h4.2v-8h7v8h8.3v5.2h-8.3v13.2q0 3.7 3 3.7 0.6 0 1.1-0.1 0.5-0.1 1.1-0.2 0.5-0.2 1-0.4 0.5-0.2 1-0.5l1.6 5.4q-0.8 0.5-1.7 0.9-0.9 0.4-1.8 0.7-0.9 0.2-1.9 0.4-0.9 0.1-1.9 0.1z"/><path class="b" d="m186 193.7h-7.1v-29.3h7.1v5.7q3-5.7 10-5.7v6.7q-5.2 0-7.6 2.2-0.6 0.7-1 1.4-0.5 0.7-0.8 1.5-0.3 0.8-0.5 1.7-0.1 0.8-0.1 1.7z"/><path class="b" d="m210.6 193.7q-5.4 0-8-3.2-0.7-0.8-1.2-1.7-0.5-1-0.8-2-0.3-1-0.5-2.1-0.1-1-0.1-2.1v-18.2h7.2v16.1q-0.1 0.6 0 1.2 0.1 0.7 0.3 1.3 0.2 0.6 0.5 1.1 0.3 0.6 0.7 1.1 0.4 0.4 1 0.8 0.5 0.4 1.2 0.6 0.6 0.3 1.2 0.4 0.7 0 1.3 0 0.9 0 1.6-0.2 0.8-0.2 1.5-0.6 0.7-0.3 1.4-0.8 0.6-0.5 1.1-1.1 0.5-0.6 0.8-1.3 0.3-0.7 0.6-1.4 0.2-0.7 0.3-1.4 0.1-0.7 0.1-1.5v-14.3h7.1v29.3h-7.1v-5.6q-3.1 5.6-10.2 5.6z"/><path class="b" d="m248.9 193.7q-1 0-1.9-0.1-0.9-0.1-1.9-0.3-0.9-0.2-1.8-0.5-0.9-0.3-1.7-0.7-0.9-0.4-1.7-0.9-0.7-0.6-1.4-1.2-0.7-0.6-1.3-1.4-0.6-0.7-1.1-1.5-1-1.8-1.5-3.9-0.5-2-0.5-4.1 0-2.1 0.5-4.1 0.5-2.1 1.5-3.9 0.5-0.8 1-1.5 0.6-0.8 1.3-1.4 0.7-0.6 1.5-1.2 0.7-0.5 1.5-0.9 0.9-0.4 1.8-0.8 1-0.3 1.9-0.5 0.9-0.2 1.9-0.3 1-0.1 1.9-0.1 8 0 12.3 5.4l-4.3 4.1q-0.7-0.8-1.6-1.5-0.9-0.6-1.9-1-1-0.4-2-0.6-1.1-0.2-2.2-0.2c-1.1 0-2.2 0.2-3.2 0.6-1 0.4-1.9 1.1-2.7 1.9-0.7 0.8-1.3 1.7-1.7 2.7-0.3 1.1-0.5 2.2-0.4 3.3q0 0.8 0.1 1.7 0.1 0.9 0.4 1.7 0.3 0.8 0.8 1.5 0.5 0.8 1.1 1.4 0.5 0.5 1.2 1 0.7 0.4 1.4 0.7 0.7 0.2 1.5 0.4 0.7 0.1 1.5 0.1 1.1 0.1 2.2-0.1 1.1-0.2 2.1-0.7 1.1-0.4 2-1 0.9-0.7 1.6-1.5l4.4 3.5q-3.9 5.9-12.6 5.9z"/><path class="b" d="m277.6 193.7q-0.8 0-1.6-0.1-0.8-0.1-1.6-0.4-0.8-0.3-1.5-0.7-0.7-0.4-1.3-0.9c-1.8-1.4-2.6-3.6-2.6-6.6v-14.5h-4.1v-5.2h4.1v-8h7v8h8.4v5.2h-8.4v13.2q0 3.7 3.1 3.7 0.5 0 1-0.1 0.6-0.1 1.1-0.2 0.5-0.2 1-0.4 0.5-0.2 1-0.5l1.7 5.4q-0.9 0.5-1.7 0.9-0.9 0.4-1.8 0.7-1 0.2-1.9 0.4-1 0.1-1.9 0.1z"/><path class="b" d="m300.2 193.7q-5.4 0-8-3.2-0.7-0.8-1.2-1.7-0.5-1-0.9-2-0.3-1-0.5-2.1-0.1-1-0.1-2.1v-18.2h7.2v16.1q0 0.6 0.1 1.3 0 0.6 0.2 1.2 0.2 0.6 0.5 1.1 0.3 0.6 0.7 1.1 0.5 0.4 1 0.8 0.6 0.4 1.2 0.6 0.6 0.3 1.3 0.4 0.6 0.1 1.3 0 0.8 0 1.6-0.2 0.8-0.2 1.5-0.6 0.7-0.3 1.3-0.8 0.7-0.5 1.2-1.1 0.4-0.6 0.8-1.3 0.3-0.6 0.5-1.4 0.2-0.7 0.3-1.4 0.2-0.7 0.1-1.5v-14.3h7.2v29.3h-7.2v-5.6q-3 5.6-10.1 5.6z"/><path class="b" d="m333.4 193.7h-7.1v-29.3h7.1v5.7q3-5.7 10-5.7v6.7q-5.2 0-7.5 2.2-0.6 0.7-1.1 1.4-0.5 0.7-0.8 1.5-0.3 0.8-0.4 1.7-0.2 0.8-0.1 1.7z"/><path fill-rule="evenodd" class="b" d="m360.4 193.7q-1.1 0.1-2.2-0.1-1-0.1-2.1-0.3-1-0.3-2.1-0.7-1-0.4-1.9-0.9-0.8-0.4-1.5-1-0.8-0.6-1.4-1.3-0.7-0.6-1.2-1.4-0.5-0.7-1-1.6-0.4-0.8-0.7-1.7-0.3-0.9-0.5-1.8-0.3-1-0.4-1.9-0.1-1-0.1-1.9 0-6.9 4.3-10.8 1.1-1 2.3-1.7 1.2-0.8 2.6-1.3 1.4-0.5 2.8-0.7 1.5-0.3 2.9-0.2 1.1-0.1 2.1 0 1.1 0.1 2.1 0.4 1 0.2 2 0.5 1 0.4 1.9 0.9 0.8 0.4 1.4 1 0.7 0.5 1.3 1.2 0.6 0.7 1 1.4 0.5 0.7 0.8 1.5 0.4 1 0.7 1.9 0.3 1 0.5 2 0.1 1 0.2 2 0.1 0.9 0.1 1.9l-0.1 2.2h-21.6q0.2 0.7 0.5 1.4 0.3 0.7 0.7 1.4 0.4 0.6 0.9 1.2 0.5 0.6 1.1 1 0.6 0.5 1.2 0.8 0.6 0.3 1.3 0.5 0.6 0.2 1.3 0.3 0.7 0.1 1.4 0.1 1.1 0 2.2-0.2 1.1-0.2 2.1-0.6 1-0.5 1.9-1.1 0.9-0.6 1.7-1.4l3.8 4q-4.6 5-12.3 5zm7.4-17.2q-0.1-0.6-0.2-1.3-0.1-0.6-0.4-1.2-0.3-0.7-0.6-1.2-0.4-0.6-0.9-1-0.6-0.5-1.2-0.9-0.6-0.4-1.3-0.6-0.7-0.2-1.5-0.3-0.7-0.1-1.4-0.1-0.8 0-1.5 0.1-0.7 0.1-1.4 0.3-0.7 0.3-1.4 0.6-0.6 0.4-1.2 0.9-0.5 0.5-0.9 1-0.4 0.6-0.7 1.2-0.3 0.6-0.5 1.2-0.2 0.7-0.2 1.3z"/><path class="c" d="m92.8 226.6h-3.6v-19.1h13.2v3.2h-9.5v5.1h8.7v3.2h-8.7z"/><path fill-rule="evenodd" class="c" d="m134.2 226.6h-4l-1.7-4h-9.3l-1.7 4h-3.8l8.4-19.1h3.8zm-7-7.2l-3.4-8-3.4 8z"/><path class="c" d="m156 226.6q-0.5 0-0.9 0-0.5 0-0.9-0.1-0.5-0.1-0.9-0.2-0.5-0.1-0.9-0.3-0.8-0.2-1.5-0.6-0.8-0.4-1.4-1-0.6-0.5-1.2-1.1-0.5-0.6-1-1.3-0.3-0.6-0.6-1.2-0.2-0.6-0.4-1.2-0.2-0.7-0.2-1.3-0.1-0.7-0.1-1.3 0-1 0.2-1.9 0.1-1 0.5-1.9 0.4-0.8 1-1.6 0.5-0.8 1.2-1.5 0.7-0.6 1.6-1.2 0.8-0.5 1.8-0.8 0.9-0.4 1.9-0.6 0.9-0.1 1.9-0.1 1.1 0 2.1 0.2 1 0.2 1.9 0.6 1 0.4 1.8 1 0.9 0.6 1.6 1.3l-2.1 2.7q-0.5-0.6-1.1-1.1-0.6-0.4-1.2-0.7-0.7-0.4-1.4-0.5-0.8-0.2-1.5-0.2-0.6 0-1.3 0.1-0.6 0.1-1.2 0.3-0.6 0.2-1.1 0.6-0.6 0.3-1 0.7-0.5 0.5-0.8 1-0.4 0.5-0.6 1.1-0.2 0.5-0.4 1.2-0.1 0.6-0.1 1.2 0.1 0.3 0.1 0.6 0 0.3 0.1 0.6 0 0.3 0.1 0.5 0.1 0.3 0.2 0.6 0.1 0.3 0.2 0.6 0.1 0.2 0.3 0.5 0.2 0.2 0.3 0.5 0.2 0.2 0.4 0.4 0.2 0.2 0.5 0.4 0.2 0.2 0.5 0.4 0.2 0.2 0.5 0.3 0.2 0.2 0.5 0.3 0.4 0.2 0.7 0.3 0.3 0.1 0.7 0.1 0.3 0.1 0.7 0.1 0.3 0 0.7 0 0.7 0 1.4-0.1 0.7-0.2 1.4-0.4 0.7-0.3 1.3-0.7 0.6-0.4 1.1-0.9l2.1 2.3q-0.7 0.8-1.5 1.4-0.9 0.6-1.9 1.1-0.9 0.4-2 0.6-1 0.2-2.1 0.2z"/><path class="c" d="m185.1 226.6h-3.7v-15.9h-6v-3.2h15.6v3.2h-6z"/><path fill-rule="evenodd" class="c" d="m213.3 226.6q-0.5 0-1 0-0.5 0-0.9-0.1-0.5-0.1-1-0.2-0.4-0.1-0.9-0.3-0.4-0.1-0.8-0.3-0.4-0.2-0.8-0.4-0.3-0.2-0.7-0.4-0.4-0.3-0.7-0.5-0.3-0.3-0.6-0.6-0.3-0.3-0.6-0.6-0.2-0.3-0.5-0.6-0.2-0.4-0.4-0.7-0.4-0.6-0.6-1.1-0.3-0.6-0.4-1.3-0.2-0.6-0.3-1.2 0-0.6 0-1.3-0.1-1 0.1-1.9 0.2-0.9 0.6-1.8 0.4-0.9 0.9-1.7 0.6-0.8 1.3-1.4 0.7-0.7 1.6-1.2 0.8-0.5 1.8-0.9 0.9-0.4 1.9-0.5 1-0.2 2-0.2 1 0 2 0.2 1 0.2 1.9 0.5 0.9 0.4 1.8 0.9 0.8 0.5 1.6 1.2 0.7 0.7 1.2 1.4 0.6 0.8 1 1.7 0.3 0.9 0.5 1.8 0.2 1 0.2 1.9 0 1-0.2 1.9-0.2 1-0.5 1.8-0.4 0.9-1 1.7-0.5 0.8-1.3 1.4-0.7 0.7-1.5 1.3-0.9 0.5-1.8 0.9-0.9 0.3-1.9 0.5-1 0.2-2 0.1zm0-3.3q0.7 0 1.3-0.1 0.6-0.1 1.2-0.3 0.5-0.3 1.1-0.6 0.5-0.3 0.9-0.8 0.5-0.4 0.9-0.9 0.3-0.5 0.6-1.1 0.2-0.6 0.3-1.2 0.2-0.7 0.1-1.3 0.1-0.6 0-1.2-0.2-0.7-0.4-1.3-0.2-0.5-0.6-1.1-0.4-0.5-0.9-0.9-0.4-0.4-0.9-0.8-0.6-0.3-1.1-0.5-0.6-0.3-1.2-0.4-0.6-0.1-1.3-0.1-0.4 0-0.8 0.1-0.4 0-0.8 0.1-0.5 0.1-0.9 0.3-0.3 0.1-0.7 0.3-0.4 0.2-0.7 0.5-0.3 0.2-0.6 0.5-0.3 0.3-0.6 0.6-0.2 0.3-0.4 0.6-0.6 0.9-0.8 2-0.3 1-0.1 2.1 0.1 1.1 0.6 2 0.5 1 1.3 1.7 0.4 0.5 1 0.8 0.5 0.4 1.1 0.6 0.6 0.2 1.2 0.3 0.6 0.1 1.2 0.1z"/><path fill-rule="evenodd" class="c" d="m253.9 226.6h-4.2l-3.3-5.6h-5v5.6h-3.7v-19.1h8q0.5 0 1 0 0.5 0 1 0.1 0.5 0.1 1 0.2 0.5 0.1 0.9 0.3c2.6 0.9 3.9 2.9 3.9 6 0 3.1-1.3 5.1-3.8 6.2zm-8.2-8.8q0.4 0 0.8-0.1 0.4 0 0.8-0.1 0.4-0.1 0.8-0.3 0.3-0.2 0.7-0.4 0.3-0.2 0.5-0.5 0.3-0.4 0.4-0.7 0.2-0.4 0.2-0.8 0.1-0.3 0.1-0.7 0-3.5-4.3-3.5h-4.3v7.1z"/><path class="c" d="m276.9 226.6h-3.7v-6.1l-7.1-13h3.7l5.2 9 5.2-9h3.7l-7 12.9z"/><path class="c" d="m282.9 144.4h-193.8"/><path class="d" d="m89.1 143.3h193.8v2.2h-193.8z"/><path class="b" d="m239.7 103.4v-99.8l21.1 7.1v101.5"/><path class="d" d="m258.6 112.2v-99.9l-16.7-5.6v96.7h-4.4v-102.8l25.5 8.5v103.1h-4.4z"/><path class="b" d="m210.5 94.9v-53l14.7 3.3v51.3"/><path class="d" d="m223 96.5v-49.4l-10.3-2.3v50.1h-4.4v-55.8l19.1 4.3v53.1h-4.4z"/><path class="d" d="m217.3 44.4v-35.4l21.1-8 0.7 2-19.6 7.5v33.9h-2.2z"/><path class="d" d="m185.6 99.1v-52.7l22.7-7.3 0.7 2-21.2 6.9v51.1h-2.2z"/><path class="b" d="m159.9 59.4l3.1 43.9-15.8 3.3 2.8-47.2h9.9z"/><path fill-rule="evenodd" class="d" d="m149.5 58.9h10.9l3.2 44.9-17 3.4zm10 1.2h-8.9l-2.7 45.9 14.6-3z"/><path class="b" d="m136 47.2l3.1 62-15.7 4.5 2.7-66.5h9.9z"/><path fill-rule="evenodd" class="d" d="m125.6 47.2v-0.5h11l3.1 62.9-16.9 4.9zm9.9 0.6h-8.8l-2.7 65.2 14.6-4.2z"/><path class="d" d="m232.2 3.6h1.1v95.5h-1.1z"/><path class="d" d="m224.7 6.6h1.1v48.9h-1.1z"/><path class="d" d="m203 40.8h1.1v54.5h-1.1z"/><path class="d" d="m199.3 43.4h1.1v55.7h-1.1z"/><path class="d" d="m190.5 44.8h1.1v54.7h-1.1z"/><path class="d" d="m195.1 44.4h1.1v53.5h-1.1z"/><path class="d" d="m200.4 99.1h2.2v43.5h-2.2z"/><path class="d" d="m202.3 99.1h6.6v43.5h-6.6z"/><path class="d" d="m190 101.2h2.2v41.4h-2.2z"/><path class="d" d="m179 103.2h2.2v39.4h-2.2z"/><path class="d" d="m170.4 103.2h2.2v39.4h-2.2z"/><path class="d" d="m161.9 103.2h2.2v39.4h-2.2z"/><path class="d" d="m154.2 106.6h2.2v36h-2.2z"/><path class="d" d="m144.2 109.4h2.2v33.2h-2.2z"/><path class="d" d="m135.9 111.2h2.2v31.4h-2.2z"/><path class="d" d="m128.3 113.3h2.2v29.3h-2.2z"/><path class="d" d="m117.9 115.1h2.2v27.5h-2.2z"/><path class="d" d="m104.8 144.4v-28.6l117.1-24.7 46.6 23v30.3h-4.4v-27.5l-42.8-21.2-112.1 23.7v25h-4.4z"/><path class="e" d="m226.8 95.3c0 0-115.8 26.5-117.8 26.6"/><path class="d" d="m109 121l-0.3-1.8c3.3-0.5 86-19.4 117.5-26.6l1.2 5.3c-34.8 8-116.2 26.7-118.2 26.8z"/><path class="d" d="m238.4 1l7.1 3.1-7.4-1 0.3-2.1z"/><path class="d" d="m237.5 0.6l0.8 1-21 7.4 20.2-8.4z"/><path class="d" d="m208.2 39.1l9.7 1.7v2.9l-9.6-0.8-0.1-3.8z"/></svg>