<svg width="48" height="48" viewBox="0 0 48 48" fill="none" xmlns="http://www.w3.org/2000/svg">
<g clip-path="url(#clip0)">
<path d="M35 16H13C12.7348 16 12.4804 16.1054 12.2929 16.2929C12.1054 16.4804 12 16.7348 12 17V35C12 35.2652 12.1054 35.5196 12.2929 35.7071C12.4804 35.8946 12.7348 36 13 36H35C35.2652 36 35.5196 35.8946 35.7071 35.7071C35.8946 35.5196 36 35.2652 36 35V17C36 16.7348 35.8946 16.4804 35.7071 16.2929C35.5196 16.1054 35.2652 16 35 16Z" fill="#0078D7"/>
<path d="M36 20H12V35C12 35.5525 12.5375 36 13.2 36H36V20Z" fill="url(#paint0_linear)"/>
<path d="M29 12H19C18.7348 12 18.4804 12.1054 18.2929 12.2929C18.1054 12.4804 18 12.7348 18 13V16H20V14H28V16H30V13C30 12.7348 29.8946 12.4804 29.7071 12.2929C29.5196 12.1054 29.2652 12 29 12V12Z" fill="url(#paint1_linear)"/>
<path d="M20 18.5H18V21.5H20V18.5Z" fill="#32BEDD"/>
<path d="M20 18.5H18V19.9925H20V18.5Z" fill="#50E6FF"/>
<path d="M30 18.5H28V21.5H30V18.5Z" fill="#32BEDD"/>
<path d="M30 18.5H28V19.9925H30V18.5Z" fill="#50E6FF"/>
<path d="M26.77 26.5H16.75C16.5511 26.5 16.3603 26.579 16.2197 26.7197C16.079 26.8603 16 27.0511 16 27.25V28.75C16 28.9489 16.079 29.1397 16.2197 29.2803C16.3603 29.421 16.5511 29.5 16.75 29.5H26.77V26.5Z" fill="#D1D3D4"/>
<path fill-rule="evenodd" clip-rule="evenodd" d="M29.0275 29.5V26.5H31.8725C31.5423 25.9281 31.0326 25.4811 30.4225 25.2284C29.8123 24.9756 29.1359 24.9313 28.498 25.1022C27.8601 25.2731 27.2964 25.6498 26.8944 26.1737C26.4923 26.6976 26.2744 27.3396 26.2744 28C26.2744 28.6604 26.4923 29.3024 26.8944 29.8263C27.2964 30.3502 27.8601 30.7269 28.498 30.8978C29.1359 31.0687 29.8123 31.0244 30.4225 30.7716C31.0326 30.5189 31.5423 30.0719 31.8725 29.5H29.0275Z" fill="url(#paint2_radial)"/>
</g>
<defs>
<linearGradient id="paint0_linear" x1="24" y1="36" x2="24" y2="20" gradientUnits="userSpaceOnUse">
<stop stop-color="#0078D4"/>
<stop offset="0.26" stop-color="#0075CE"/>
<stop offset="0.59" stop-color="#006CBE"/>
<stop offset="0.97" stop-color="#005CA4"/>
<stop offset="1" stop-color="#005BA1"/>
</linearGradient>
<linearGradient id="paint1_linear" x1="18" y1="12" x2="338" y2="332" gradientUnits="userSpaceOnUse">
<stop stop-color="#0078D4"/>
<stop offset="0.26" stop-color="#0075CE"/>
<stop offset="0.59" stop-color="#006CBE"/>
<stop offset="0.97" stop-color="#005CA4"/>
<stop offset="1" stop-color="#005BA1"/>
</linearGradient>
<radialGradient id="paint2_radial" cx="0" cy="0" r="1" gradientUnits="userSpaceOnUse" gradientTransform="translate(408.623 409) scale(64.9377 69.6)">
<stop stop-color="#F2F2F2"/>
<stop offset="0.58" stop-color="#EEEEEE"/>
<stop offset="1" stop-color="#E6E6E6"/>
</radialGradient>
<clipPath id="clip0">
<rect width="24" height="24" fill="white" transform="translate(12 12)"/>
</clipPath>
</defs>
</svg>
