<svg width="48" height="48" viewBox="0 0 48 48" fill="none" xmlns="http://www.w3.org/2000/svg">
<path d="M24 36C30.6274 36 36 30.6274 36 24C36 17.3726 30.6274 12 24 12C17.3726 12 12 17.3726 12 24C12 30.6274 17.3726 36 24 36Z" fill="url(#paint0_linear)"/>
<path d="M24 33.3325C29.1542 33.3325 33.3325 29.1542 33.3325 24C33.3325 18.8458 29.1542 14.6675 24 14.6675C18.8458 14.6675 14.6675 18.8458 14.6675 24C14.6675 29.1542 18.8458 33.3325 24 33.3325Z" fill="#0078D7"/>
<path d="M24 33.3325C29.1542 33.3325 33.3325 29.1542 33.3325 24C33.3325 18.8458 29.1542 14.6675 24 14.6675C18.8458 14.6675 14.6675 18.8458 14.6675 24C14.6675 29.1542 18.8458 33.3325 24 33.3325Z" fill="url(#paint1_radial)"/>
<path d="M24 26.625C25.4497 26.625 26.625 25.4497 26.625 24C26.625 22.5503 25.4497 21.375 24 21.375C22.5503 21.375 21.375 22.5503 21.375 24C21.375 25.4497 22.5503 26.625 24 26.625Z" fill="#50E6FF"/>
<path d="M24 26.625C25.4497 26.625 26.625 25.4497 26.625 24C26.625 22.5503 25.4497 21.375 24 21.375C22.5503 21.375 21.375 22.5503 21.375 24C21.375 25.4497 22.5503 26.625 24 26.625Z" fill="#50E6FF"/>
<path d="M24 17.97C23.2098 17.969 22.4273 18.1245 21.6975 18.4275L21.3175 17.5C22.1678 17.1474 23.0796 16.9673 24 16.97C25.391 16.9685 26.7511 17.3799 27.908 18.1522C29.0649 18.9245 29.9665 20.0228 30.4985 21.3081C31.0305 22.5933 31.169 24.0075 30.8965 25.3715C30.6239 26.7355 29.9526 27.9879 28.9675 28.97L28.2625 28.265C29.1073 27.4223 29.6831 26.3478 29.9167 25.1776C30.1503 24.0074 30.0314 22.7942 29.5749 21.6917C29.1184 20.5892 28.3449 19.647 27.3525 18.9844C26.36 18.3219 25.1933 17.9688 24 17.97Z" fill="#50E6FF"/>
<path d="M18.625 21.2674C18.0469 22.4021 17.8432 23.6907 18.0431 24.9483C18.2429 26.206 18.8361 27.3679 19.7375 28.2674L19.0325 28.9724C17.9815 27.9243 17.2908 26.5693 17.0603 25.1029C16.8298 23.6366 17.0713 22.135 17.75 20.8149L18.625 21.2674Z" fill="#50E6FF"/>
<path fill-rule="evenodd" clip-rule="evenodd" d="M28.0575 18.5276L29.8525 16.7351C30.3728 17.1546 30.8471 17.628 31.2675 18.1476L24.75 24.6726L23.3275 23.2501L28.0575 18.5276Z" fill="#50E6FF"/>
<path d="M24 25C24.5523 25 25 24.5523 25 24C25 23.4477 24.5523 23 24 23C23.4477 23 23 23.4477 23 24C23 24.5523 23.4477 25 24 25Z" fill="#005BA1"/>
<path d="M24 25C24.5523 25 25 24.5523 25 24C25 23.4477 24.5523 23 24 23C23.4477 23 23 23.4477 23 24C23 24.5523 23.4477 25 24 25Z" fill="#005BA1"/>
<path d="M28.21 18.375C28.7467 18.7768 29.2232 19.2532 29.625 19.79L28.91 20.5C28.5204 19.956 28.044 19.4796 27.5 19.09L28.06 18.5275L28.21 18.375Z" fill="#C3F1FF"/>
<defs>
<linearGradient id="paint0_linear" x1="24" y1="36" x2="24" y2="12" gradientUnits="userSpaceOnUse">
<stop stop-color="#A7A9AC"/>
<stop offset="0.3" stop-color="#ABADB0"/>
<stop offset="0.62" stop-color="#B8BABC"/>
<stop offset="0.95" stop-color="#CDCFD1"/>
<stop offset="1" stop-color="#D1D3D4"/>
</linearGradient>
<radialGradient id="paint1_radial" cx="0" cy="0" r="1" gradientUnits="userSpaceOnUse" gradientTransform="translate(24 24) scale(9.3325)">
<stop stop-color="#0078D4"/>
<stop offset="0.26" stop-color="#0075CE"/>
<stop offset="0.59" stop-color="#006CBE"/>
<stop offset="0.97" stop-color="#005CA4"/>
<stop offset="1" stop-color="#005BA1"/>
</radialGradient>
</defs>
</svg>
